<?xml version="1.0" encoding="UTF-8" standalone="no"?><!-- Generator: Gravit.io --><svg xmlns="http://www.w3.org/2000/svg" xmlns:xlink="http://www.w3.org/1999/xlink" style="isolation:isolate" viewBox="0 0 1068.892 152" width="1068.892pt" height="152pt"><defs><clipPath id="_clipPath_mC6YZP6akIpZ50oKfoSVpGPzBRb50Dfg"><rect width="1068.892" height="152"/></clipPath></defs><g clip-path="url(#_clipPath_mC6YZP6akIpZ50oKfoSVpGPzBRb50Dfg)"><rect width="1068.892" height="152" style="fill:rgb(0,0,0)" fill-opacity="0"/><path d=" M 1065.223 15.236 L 1068.826 13.653 C 1068.914 13.566 1068.914 13.478 1068.826 13.478 L 1065.223 11.896 L 1063.553 8.204 C 1063.553 8.116 1063.465 8.116 1063.465 8.204 L 1061.795 11.808 L 1058.191 13.478 C 1058.103 13.478 1058.103 13.566 1058.191 13.653 L 1061.795 15.236 L 1063.465 18.839 L 1063.553 18.839 L 1065.223 15.236 Z  M 841.7 6.538 L 845.1 5.038 L 845.1 4.838 L 841.7 3.438 L 840.2 0.138 L 840 0.138 L 838.5 3.438 L 835.2 4.838 C 835.1 4.938 835.1 5.038 835.2 5.038 L 838.5 6.538 L 840 9.938 L 840.2 9.938 L 841.7 6.538 Z  M 1044 44 L 1049.075 41.775 C 1049.107 41.739 1049.125 41.692 1049.125 41.644 C 1049.125 41.595 1049.107 41.549 1049.075 41.513 L 1044 39.287 L 1041.723 34.182 C 1041.71 34.168 1041.695 34.157 1041.679 34.15 C 1041.662 34.142 1041.643 34.138 1041.625 34.138 C 1041.607 34.138 1041.588 34.142 1041.571 34.15 C 1041.555 34.157 1041.54 34.168 1041.527 34.182 L 1039.25 39.222 L 1034.175 41.513 C 1034.143 41.549 1034.125 41.595 1034.125 41.644 C 1034.125 41.692 1034.143 41.739 1034.175 41.775 L 1039.25 44 L 1041.527 49.04 C 1041.614 49.171 1041.679 49.171 1041.723 49.04 L 1044 44 Z  M 58.551 146.862 L 63.626 144.637 C 63.658 144.601 63.676 144.554 63.676 144.506 C 63.676 144.458 63.658 144.411 63.626 144.375 L 58.551 142.15 L 56.274 137.044 C 56.261 137.03 56.246 137.019 56.23 137.012 C 56.213 137.004 56.194 137 56.176 137 C 56.158 137 56.139 137.004 56.122 137.012 C 56.106 137.019 56.091 137.03 56.078 137.044 L 53.801 142.084 L 48.726 144.375 C 48.694 144.411 48.676 144.458 48.676 144.506 C 48.676 144.554 48.694 144.601 48.726 144.637 L 53.801 146.862 L 56.078 151.902 C 56.165 152.033 56.23 152.033 56.274 151.902 L 58.551 146.862 Z  M 15.276 15.15 L 22.976 11.75 C 23.029 11.75 23.08 11.729 23.118 11.691 C 23.155 11.654 23.176 11.603 23.176 11.55 C 23.176 11.497 23.155 11.446 23.118 11.409 C 23.08 11.371 23.029 11.35 22.976 11.35 L 15.276 7.95 C 15.25 7.95 15.224 7.94 15.206 7.921 C 15.187 7.902 15.176 7.876 15.176 7.85 L 11.676 0.15 C 11.676 -0.05 11.476 -0.05 11.376 0.15 L 7.976 7.85 L 7.876 7.85 L 0.076 11.35 C 0.027 11.405 0 11.476 0 11.55 C 0 11.624 0.027 11.695 0.076 11.75 L 7.876 15.15 L 7.976 15.15 L 11.376 22.95 C 11.476 23.15 11.676 23.15 11.676 22.95 L 15.176 15.25 C 15.176 15.223 15.187 15.198 15.206 15.179 C 15.224 15.16 15.25 15.15 15.276 15.15 Z " fill-rule="evenodd" fill="rgb(255,122,188)"/></g></svg>