<?xml version="1.0" encoding="UTF-8" standalone="no"?><!-- Generator: Gravit.io --><svg xmlns="http://www.w3.org/2000/svg" xmlns:xlink="http://www.w3.org/1999/xlink" style="isolation:isolate" viewBox="0 0 382.622 290.703" width="382.622pt" height="290.703pt"><defs><clipPath id="_clipPath_pBMb3FePKAcrrk4IMK4MV86VPnwUaOxX"><rect width="382.622" height="290.703"/></clipPath></defs><g clip-path="url(#_clipPath_pBMb3FePKAcrrk4IMK4MV86VPnwUaOxX)"><rect width="382.622" height="290.703" style="fill:rgb(0,0,0)" fill-opacity="0"/><g><path d=" M 39.6 65.336 C 37.1 68.936 36.1 75.736 35.1 82.736 C 34.1 89.736 32.7 101.036 34.4 109.436 L 39.6 65.336 Z " fill="rgb(194,255,206)"/><path d=" M 62.8 233.937 C 62.7 238.137 65.1 241.537 60.8 243.437 C 54.4 246.237 51.6 249.137 46.8 250.537 C 42 251.937 34.8 254.037 38.6 246.737 C 42.4 239.437 45 232.737 45 232.737 L 62.8 233.937 Z " fill="rgb(28,27,41)"/><path d=" M 28.8 222.336 C 28.2 226.536 30.2 230.136 25.7 231.536 C 19 233.536 15.8 236.136 11 236.836 C 6.2 237.536 -1.4 238.936 3.2 232.136 C 7.8 225.336 11.3 218.936 11.3 218.936 L 28.8 222.336 Z " fill="rgb(40,38,59)"/><path d=" M 9.4 182.135 C 10.187 179.135 11.775 176.405 13.995 174.239 C 16.215 172.072 18.982 170.55 22 169.835 L 28.3 168.335 C 33.2 134.135 27.6 127.235 53.7 116.335 L 75.5 112.735 C 75.5 112.735 97.8 110.235 107.4 120.235 L 100.8 159.135 C 100.8 159.135 108.7 183.435 108.2 196.335 L 79.2 196.335 L 72 237.935 C 24.5 237.035 0 218.335 0 218.335 L 9.4 182.135 Z " fill="rgb(207,222,255)"/><path d=" M 57.9 187.036 C 59.1 180.236 59 177.636 67.5 176.836 L 80.8 175.636 L 79.8 173.036 L 51.2 171.836 L 72 152.036 L 101.9 157.136 C 102.845 160.866 103.382 164.689 103.5 168.536 C 107 170.736 106.2 173.536 105.5 176.336 C 107.1 183.236 108.4 190.836 108.2 196.336 L 79.2 196.336 C 79 205.336 76.3 211.036 75.8 216.836 C 75.3 222.636 73.2 238.036 73.2 238.036 C 65.169 237.826 57.156 237.158 49.2 236.036 L 57.9 187.036 Z " fill="rgb(171,186,255)"/><path d=" M 100.3 168.436 L 72 170.336 C 72 170.336 79.4 168.236 86.3 167.036 C 90.464 166.224 94.671 165.657 98.9 165.336 C 100 165.336 100.5 166.236 100.9 167.536 C 100.931 167.635 100.938 167.74 100.923 167.842 C 100.908 167.944 100.87 168.042 100.813 168.128 C 100.756 168.214 100.68 168.287 100.591 168.34 C 100.503 168.393 100.403 168.426 100.3 168.436 Z " fill="rgb(143,162,250)"/><path d=" M 62.7 173.535 C 52 176.535 50.6 177.135 45.2 185.735 C 39.8 194.335 39.6 193.835 35.2 189.435 C 30.8 185.035 24.6 178.435 22.5 175.935 C 20.4 173.435 22.6 172.935 36.6 171.035 C 50.6 169.135 69.7 171.535 62.7 173.535 Z " fill="rgb(189,209,255)"/><path d=" M 94.3 144.235 C 92.302 140.461 90.854 136.42 90 132.235 C 89.2 129.135 87.1 133.235 88.8 138.535 C 89.977 142.038 92.044 145.174 94.8 147.635 L 94.3 144.235 Z " fill="rgb(184,197,255)"/><path d=" M 101.1 112.436 C 73.8 145.536 48.3 169.036 47.1 122.536 L 101.1 112.436 Z " fill="rgb(184,197,255)"/><path d=" M 86.3 117.836 C 60.9 134.036 54.5 139.736 54.3 124.236 L 86.3 117.836 Z " fill="rgb(86,151,176)"/><path d=" M 30.7 146.836 C 32.2 132.436 33.9 126.136 47.1 119.336 C 44.5 128.536 45.2 146.836 45.2 146.836 L 30.7 146.836 Z " fill="rgb(255,255,255)"/><path d=" M 42.7 134.936 C 43.233 138.641 44.103 142.29 45.3 145.836 L 43 146.136 C 41.787 142.581 40.851 138.936 40.2 135.236 C 39.7 131.036 42 130.336 42.7 134.936 Z " fill="rgb(219,230,255)"/><path d=" M 68.2 73.735 L 68.2 65.935 C 68.21 63.39 69.029 60.913 70.539 58.864 C 72.049 56.815 74.171 55.299 76.6 54.535 C 79.269 53.707 82.144 53.844 84.722 54.922 C 87.3 56.001 89.416 57.953 90.7 60.435 C 95.4 69.435 102.8 83.935 108.2 96.235 C 116.8 115.836 90.4 124.036 63.6 125.436 C 36.8 126.836 32.8 115.536 34.3 98.335 C 35.3 87.435 36.9 76.335 37.9 69.535 C 38.211 67.585 39.088 65.769 40.421 64.311 C 41.754 62.854 43.485 61.819 45.4 61.335 C 47.531 60.839 49.766 61.049 51.768 61.933 C 53.769 62.816 55.43 64.326 56.5 66.235 L 60.5 73.735 L 68.2 73.735 Z " fill="rgb(124,228,204)"/><path d=" M 38.9 105.836 L 40.7 104.936 L 50.8 107.036 L 60.8 107.036 L 77.4 101.436 C 77.4 101.436 84.9 85.735 86.3 101.936 C 87.2 113.136 83.3 120.136 80.8 123.436 C 75.114 124.436 69.368 125.071 63.6 125.336 C 59.262 125.651 54.902 125.484 50.6 124.836 C 47.2 121.236 41.6 114.236 38.9 105.836 Z " fill="rgb(170,250,231)"/><g opacity="0.74"><linearGradient id="_lgradient_0" x1="-0.02855320183365251" y1="0.6156076368876048" x2="0.513616554614474" y2="0.48660594615126157" gradientTransform="matrix(-37.859,0,0,70.736,109.859,54)" gradientUnits="userSpaceOnUse"><stop offset="0%" stop-opacity="1" style="stop-color:rgb(97,199,199)"/><stop offset="100%" stop-opacity="1" style="stop-color:rgb(84,185,199)"/></linearGradient><path d=" M 86.4 100.536 C 87.8 94.135 90.1 80.835 87.2 71.335 C 84.3 61.835 81.1 54.035 76.6 54.535 C 79.269 53.707 82.145 53.844 84.723 54.922 C 87.301 56.001 89.417 57.953 90.7 60.435 C 95.4 69.435 102.8 83.935 108.2 96.235 C 115.9 113.736 95.6 122.136 72 124.736 C 77 123.236 82.8 117.036 86.4 100.536 Z " fill="url(#_lgradient_0)"/></g><path d=" M 72 124.736 L 73.9 124.536 L 75.7 124.336 L 78.5 123.936 L 79.4 123.736 L 80.8 123.536 C 83.3 120.236 87.2 113.236 86.3 102.036 C 86.315 101.831 86.281 101.625 86.2 101.436 C 82.6 117.236 76.9 123.336 72 124.736 Z " fill="rgb(170,250,231)"/><g opacity="0.5"><linearGradient id="_lgradient_1" x1="737.5681927426206" y1="112.69012875536481" x2="752.0219828525996" y2="112.69012875536481" gradientTransform="matrix(-14.432,0,0,23.3,86.432,101.436)" gradientUnits="userSpaceOnUse"><stop offset="0%" stop-opacity="1" style="stop-color:rgb(97,199,199)"/><stop offset="100%" stop-opacity="1" style="stop-color:rgb(84,185,199)"/></linearGradient><path d=" M 72 124.736 L 73.9 124.536 L 75.7 124.336 L 78.5 123.936 L 79.4 123.736 L 80.8 123.536 C 83.3 120.236 87.2 113.236 86.3 102.036 C 86.315 101.831 86.281 101.625 86.2 101.436 C 82.6 117.236 76.9 123.336 72 124.736 Z " fill="url(#_lgradient_1)"/></g><path d=" M 41.5 103.535 L 41.8 105.435 C 52.9 110.035 54.8 111.435 80.1 101.435 L 80.1 99.635 L 79 100.035 C 57.4 107.335 53.2 108.235 41.5 103.535 Z " fill="rgb(44,70,97)"/><path d=" M 82.99 107.296 C 79.383 106.776 76.93 103.075 77.513 99.03 C 78.096 94.984 81.493 92.127 85.101 92.647 C 88.709 93.166 91.161 96.867 90.578 100.913 C 89.995 104.958 86.598 107.816 82.99 107.296 Z " fill="rgb(115,142,255)"/><path d=" M 36.067 105.227 C 34.923 101.941 35.517 98.747 37.395 98.093 C 39.273 97.44 41.722 99.574 42.867 102.859 C 44.011 106.145 43.416 109.339 41.539 109.993 C 39.661 110.647 37.211 108.513 36.067 105.227 Z " fill="rgb(115,142,255)"/><g opacity="0.41"><path d=" M 61.7 95.235 C 62.1 94.435 61.2 94.035 60.5 93.835 C 60.219 93.768 59.923 93.79 59.655 93.897 C 59.386 94.004 59.158 94.192 59 94.435 L 56.9 98.035 C 56.3 99.135 57.4 99.035 58.4 98.235 C 59.4 97.435 61.1 96.535 61.7 95.235 Z " fill="rgb(40,78,122)"/></g><g opacity="0.41"><path d=" M 50.6 98.236 C 50.23 97.692 49.896 97.124 49.6 96.536 C 49.426 96.245 49.342 95.909 49.36 95.571 C 49.377 95.232 49.496 94.907 49.7 94.636 L 50 94.236 C 50.2 94.036 50.4 94.136 50.5 94.336 C 51.153 95.514 51.689 96.753 52.1 98.036 C 52.4 99.436 51.5 99.536 50.6 98.236 Z " fill="rgb(40,78,122)"/></g><path d=" M 39.5 141.435 C 37 133.835 30.7 130.835 23.6 131.035 L 30.7 141.435 L 39.5 141.435 Z " fill="rgb(247,174,165)"/><path d=" M 66.5 134.835 C 47.4 128.335 38.9 140.235 38.9 140.235 C 36.716 137.306 33.733 135.07 30.31 133.793 C 26.887 132.516 23.169 132.253 19.6 133.035 L 16.4 138.835 L 45.3 150.135 L 66.5 134.835 Z " fill="rgb(254,204,175)"/><path d=" M 39.2 144.336 L 38.9 141.436 L 35.4 143.536 L 39.2 144.336 Z " fill="rgb(107,49,67)"/><path d=" M 68.6 134.036 L 81.7 168.236 L 49.7 177.136 L 47.6 177.136 L 25.3 166.736 L 12.8 136.036 L 13.9 134.836 L 37.7 143.436 L 68.6 134.036 Z " fill="rgb(19,59,186)"/><path d=" M 12.8 136.036 L 36.7 144.836 L 47.6 177.136 L 25.7 167.936 L 12.8 136.036 Z " fill="rgb(21,65,204)"/><path d=" M 69.1 135.436 L 38.9 144.836 L 49.7 177.136 L 81.7 168.236 L 69.1 135.436 Z " fill="rgb(11,37,133)"/><path d=" M 58.8 75.735 L 68.2 73.735 L 60.5 73.735 L 56.5 66.235 C 55.431 64.326 53.77 62.816 51.768 61.933 C 49.766 61.049 47.531 60.839 45.4 61.335 L 43.6 62.035 C 48 60.535 50.2 65.535 51.9 71.735 C 52.8 75.135 52.9 76.935 58.8 75.735 Z " fill="rgb(97,199,199)"/><path d=" M 40.934 76.604 C 40.608 74.196 41.941 72.028 43.912 71.762 C 45.882 71.495 47.743 73.232 48.069 75.64 C 48.394 78.048 47.061 80.216 45.091 80.482 C 43.12 80.749 41.259 79.013 40.934 76.604 Z " fill="rgb(33,53,74)"/><path d=" M 74.028 70.737 C 73.481 68.369 74.609 66.087 76.546 65.64 C 78.483 65.192 80.497 66.749 81.043 69.117 C 81.59 71.485 80.463 73.767 78.525 74.214 C 76.588 74.661 74.575 73.105 74.028 70.737 Z " fill="rgb(33,53,74)"/><path d=" M 75.5 147.635 C 72.7 148.135 69.9 148.935 68.8 149.235 C 67.7 149.535 67.3 149.735 67.7 151.035 C 68.1 152.335 68.1 152.235 70.5 152.035 L 76.1 151.735 L 75.5 147.635 Z " fill="rgb(97,199,199)"/><path d=" M 100.8 159.137 C 96.7 159.737 91.4 160.037 86.7 160.437 C 86.559 158.524 86.155 156.64 85.5 154.837 C 84.388 151.865 82.91 149.043 81.1 146.437 C 84.8 145.637 89.3 144.737 93 144.137 C 91.4 125.637 99.8 114.437 105.8 118.837 C 108.664 120.94 110.629 124.047 111.3 127.537 C 111.8 130.237 112.1 134.837 112.4 135.837 C 113.3 139.137 115.8 139.837 113.7 146.437 C 112.6 149.737 116.4 157.037 100.8 159.137 Z " fill="rgb(255,255,255)"/><path d=" M 83.2 145.936 L 87 145.236 C 88.9 144.836 89.8 145.036 88.7 145.636 C 87.6 146.236 87.5 146.736 90.4 147.136 C 93.3 147.536 93 149.036 92.1 149.736 C 91.2 150.436 90.6 151.536 92.8 152.236 C 95 152.936 95.4 153.936 94.1 154.736 C 92.8 155.536 92.1 156.536 94.3 157.236 C 96.5 157.936 96.2 159.136 94.3 159.836 L 89.3 160.136 L 83.2 145.936 Z " fill="rgb(255,232,173)"/><path d=" M 86.7 160.436 C 86.4 157.436 85.7 153.236 81.1 146.436 L 74.1 147.936 L 75 151.336 L 70.5 154.436 C 69 155.536 69 155.836 69.3 156.536 C 69.528 157.07 69.912 157.523 70.4 157.836 C 70.7 158.136 71.5 157.636 72.7 157.236 L 76.1 156.136 C 76.7 155.936 76.8 156.336 76.4 156.636 C 76 156.936 73.2 158.336 72.6 158.736 C 72 159.136 71.9 159.336 72.1 159.836 C 72.3 160.336 72.6 161.336 73.6 161.236 C 74.6 161.136 78.2 160.036 78.2 160.036 C 80.6 161.036 83.7 160.636 86.7 160.436 Z " fill="rgb(97,199,199)"/><path d=" M 93 144.135 C 95.7 144.235 100.2 146.335 103.5 148.635 C 106.8 150.935 107.5 149.335 106.4 147.635 C 105.3 145.935 101.2 145.035 97.3 144.135 C 93.4 143.235 92.9 143.435 92.9 143.435 L 93 144.135 Z " fill="rgb(219,230,255)"/><path d=" M 96.4 143.936 C 95.1 143.736 94.3 142.436 96.7 141.736 L 102.3 140.136 C 103 140.036 103.6 137.936 101.1 138.536 C 98.6 139.136 92.8 142.136 92.8 142.136 C 92.8 142.136 91.2 143.636 93 144.136 L 96.4 143.936 Z " fill="rgb(219,230,255)"/><path d=" M 74.1 151.937 L 76 150.637 L 75.6 149.737 L 73.4 151.937 L 74.1 151.937 Z " fill="rgb(86,151,176)"/><path d=" M 76.4 156.636 L 77.6 156.036 L 77 155.436 L 76.1 156.136 L 76.4 156.636 Z " fill="rgb(86,151,176)"/><path d=" M 85 145.635 C 87.9 148.135 91.2 152.635 91.5 159.935 L 86.7 160.435 C 86.559 158.522 86.155 156.638 85.5 154.835 C 84.388 151.863 82.91 149.042 81.1 146.435 L 85 145.635 Z " fill="rgb(255,217,120)"/><path d=" M 110.8 140.836 C 110.652 140.555 110.413 140.333 110.122 140.206 C 109.832 140.079 109.506 140.054 109.2 140.136 C 107.465 140.553 105.761 141.088 104.1 141.736 C 103.1 142.336 106.9 143.436 109.9 144.036 C 112.9 144.636 112.3 143.536 110.8 140.836 Z " fill="rgb(230,237,255)"/><path d=" M 78.3 156.236 C 79.1 155.336 79.2 154.436 77.9 153.836 C 76.6 153.236 76.7 152.236 77.2 151.536 C 77.7 150.836 78.7 149.736 76.9 149.136 C 75.1 148.536 75.9 147.536 77.3 147.236 L 77.4 147.236 L 81.1 146.436 C 84.4 151.336 85.7 154.836 86.3 157.536 C 86.2 157.536 80.2 158.236 78.9 157.936 C 77.6 157.636 77.4 157.036 78.3 156.236 Z " fill="rgb(102,212,205)"/><path d=" M 17.5 147.635 L 21.6 149.635 C 21.93 149.799 22.181 150.087 22.3 150.435 C 22.8 151.435 23.1 152.235 22.3 152.235 L 18.1 151.935 C 15.4 150.035 15.9 149.235 17.5 147.635 Z " fill="rgb(94,199,199)"/><path d=" M 18.8 151.237 L 23 153.237 C 23.305 153.431 23.548 153.709 23.7 154.037 C 24.1 155.037 24.5 155.837 23.7 155.837 L 19.5 155.537 C 16.8 153.637 17.3 152.837 18.8 151.237 Z " fill="rgb(94,199,199)"/><path d=" M 20.5 155.637 L 22.8 156.637 C 22.972 157.05 23.073 157.49 23.1 157.937 C 23.1 158.637 22.8 158.537 22 158.437 L 19.8 158.137 C 19.2 158.037 19.2 157.937 19.1 157.337 L 19.1 155.237 L 20.5 155.637 Z " fill="rgb(94,199,199)"/><path d=" M 79.2 196.335 C 80.6 188.035 80.8 186.435 81.1 185.335 C 81.4 184.235 83.5 193.435 83.6 196.335 L 79.2 196.335 Z " fill="rgb(124,144,235)"/><path d=" M 63.3 190.836 C 64.8 202.736 66.9 215.536 67.8 222.236 C 68.7 228.936 70 223.936 71.1 218.736 C 72.2 213.536 71.9 211.636 69.1 202.136 C 66.3 192.636 62.5 184.236 63.3 190.836 Z " fill="rgb(158,176,255)"/><path d=" M 47.6 185.935 C 40.6 196.235 28.9 213.035 26.6 217.435 C 24.3 221.835 27 219.335 31.4 216.035 C 35.8 212.735 36.5 211.835 39.4 206.935 C 42.3 202.035 51.5 180.135 47.6 185.935 Z " fill="rgb(224,234,255)"/><path d=" M 16.6 177.936 C 19 187.136 23 198.736 24 202.236 C 25 205.736 28.9 204.536 32 203.036 C 35.1 201.536 33.8 202.236 31.5 205.136 C 29.641 207.316 27.27 208.999 24.6 210.036 C 23 210.636 20.3 212.436 18.8 202.336 C 17.3 192.236 15.3 173.236 16.6 177.936 Z " fill="rgb(189,209,255)"/><path d=" M 7.6 216.637 C 8.3 222.437 13.5 220.837 16.2 219.037 C 18.9 217.237 22.4 217.837 23.5 223.737 C 24 226.237 26.5 228.537 30.4 225.437 C 34.3 222.337 37.3 223.337 38 227.437 C 38.7 231.537 42.1 232.537 45.5 228.637 C 48.9 224.737 53.1 226.637 54.1 231.537 C 55.1 236.437 59.6 235.337 61.9 231.337 C 64.2 227.337 68.2 229.137 68.9 233.537 C 69.6 237.937 73.2 235.237 73.7 233.737 L 73.2 238.037 C 68.9 237.937 64.5 237.737 60.2 237.337 C 20.5 233.937 0 218.337 0 218.337 L 0.7 215.237 C 1.9 210.937 6.8 210.837 7.6 216.637 Z " fill="rgb(148,167,255)"/><path d=" M 50.9 226.836 C 52.4 227.436 53.6 229.136 54.1 231.536 C 54.9 235.536 59.6 235.336 61.9 231.336 C 64.2 227.336 68.2 229.136 68.9 233.536 C 69.6 237.936 73.2 235.236 73.7 233.736 C 73.5 235.536 73.3 236.936 73.2 237.536 L 73.2 238.036 C 65.169 237.826 57.156 237.159 49.2 236.036 L 50.9 226.836 Z " fill="rgb(125,147,255)"/><path d=" M 101.2 176.835 C 100.6 178.335 99.7 177.635 98.1 177.235 C 93.2 175.835 88.2 173.835 86 173.635 C 83.8 173.435 83 172.535 87.5 172.635 C 92 172.735 98.4 173.035 100.4 173.235 C 102.4 173.435 102.2 174.335 101.2 176.835 Z " fill="rgb(143,162,250)"/><path d=" M 74.4 55.535 C 70.9 58.435 70.7 64.435 70.7 66.835 C 70.7 69.235 70.7 73.535 70.7 74.635 C 70.7 75.735 70.4 76.135 67 78.235 C 63.6 80.335 64.9 78.535 66.3 76.535 L 68.2 73.735 L 68.2 65.935 C 68.209 63.805 68.788 61.717 69.879 59.888 C 70.969 58.058 72.531 56.555 74.4 55.535 Z " fill="rgb(212,255,220)"/><path d=" M 42.6 73.336 C 41.3 74.036 41.4 77.236 42.6 75.836 C 43.8 74.436 44.4 72.436 42.6 73.336 Z " fill="rgb(51,90,112)"/><path d=" M 75.4 67.234 C 74.2 67.934 74.3 71.234 75.4 69.734 C 76.5 68.234 77.3 66.334 75.4 67.234 Z " fill="rgb(51,90,112)"/><g><path d=" M 88.4 69.435 C 84.1 71.435 82.2 73.835 80.9 76.735 C 79.6 79.635 81.6 84.235 86.3 79.135 C 91 74.035 92.9 67.335 88.4 69.435 Z " fill="rgb(218,212,255)"/></g><g><path d=" M 35.8 84.535 C 36.3 81.135 36.7 77.935 37.1 75.035 C 38.377 76.735 39.202 78.73 39.5 80.835 C 39.9 83.235 38.2 86.235 35.8 84.535 Z " fill="rgb(218,212,255)"/></g><g><path d=" M 93.3 84.036 C 88 87.336 86.2 87.536 83.7 87.236 C 81.2 86.936 81.7 85.136 85.6 82.336 C 89.5 79.536 91.7 79.036 94.2 80.036 C 96.7 81.036 95 82.836 93.3 84.036 Z " fill="rgb(218,212,255)"/></g><g><line x1="35.1" y1="91.236" x2="35.4" y2="87.736"/></g><path d=" M 80.317 103.459 C 78.921 102.937 78.51 100.585 79.399 98.205 C 80.289 95.825 82.143 94.319 83.539 94.842 C 84.936 95.364 85.347 97.716 84.457 100.096 C 83.568 102.476 81.714 103.982 80.317 103.459 Z " fill="rgb(178,166,255)"/><path d=" M 35.886 102.251 C 35.68 100.663 36.134 99.294 36.901 99.194 C 37.668 99.095 38.456 100.302 38.663 101.89 C 38.869 103.479 38.415 104.847 37.648 104.946 C 36.881 105.046 36.092 103.839 35.886 102.251 Z " fill="rgb(178,166,255)"/><path d=" M 41.2 65.136 C 39.3 67.136 39.1 70.336 41.2 67.836 C 43.3 65.336 43.5 62.736 41.2 65.136 Z " fill="rgb(212,255,220)"/><path d=" M 63.4 114.035 C 58 116.235 54 115.435 51.5 114.435 C 49 113.435 49.3 116.135 53.7 118.335 C 58.1 120.535 59.2 119.735 61.5 117.835 C 63.8 115.935 66.5 112.735 63.4 114.035 Z " fill="rgb(124,228,204)"/></g><clipPath id="_clipPath_4D6FGQaXJGRJFLuAXEOIcmPJKTDN0qCL"><rect x="166.518" y="0" width="216.104" height="290.703" transform="matrix(1,0,0,1,0,0)" fill="rgb(255,255,255)"/></clipPath><g clip-path="url(#_clipPath_4D6FGQaXJGRJFLuAXEOIcmPJKTDN0qCL)"><g><rect x="166.518" y="0" width="216.104" height="290.703" transform="matrix(1,0,0,1,0,0)" fill="none"/><g><path d=" M 244.818 155.404 C 242.518 163.404 241.819 165.904 244.719 168.904 C 247.619 171.904 244.818 155.404 244.818 155.404 Z " fill="rgb(125,159,255)"/><path d=" M 233.118 84.505 C 236.318 77.605 236.218 77.305 242.018 75.305 L 234.318 86.205 L 233.118 84.505 Z " fill="rgb(255,112,126)"/><linearGradient id="_lgradient_2" x1="0.6010143949292983" y1="0.08410832314328094" x2="0.4200562390057938" y2="0.3276789562550689" gradientTransform="matrix(97.923,0,0,51.174,228.005,0.029)" gradientUnits="userSpaceOnUse"><stop offset="0%" stop-opacity="1" style="stop-color:rgb(255,194,133)"/><stop offset="100%" stop-opacity="1" style="stop-color:rgb(219,141,107)"/></linearGradient><path d=" M 322.018 23.403 L 321.718 23.703 L 320.918 24.403 L 320.618 24.703 L 320.018 25.203 C 306.518 36.803 289.118 41.803 277.418 45.303 C 262.218 49.803 249.618 51.203 240.118 51.203 C 227.818 51.103 225.418 44.703 230.518 37.003 L 233.518 33.403 L 248.518 15.203 L 249.218 14.303 C 259.118 2.603 268.018 -2.697 286.718 1.403 L 315.118 7.503 L 315.218 7.503 C 325.118 9.703 329.818 15.703 322.018 23.403 Z " fill="url(#_lgradient_2)"/><path d=" M 289.318 3.604 C 300.718 6.404 320.118 12.104 320.118 12.104 L 324.918 12.804 C 323.218 10.404 319.818 8.504 315.218 7.504 L 315.118 7.504 L 286.718 1.404 C 277.818 -0.596 271.218 -0.396 265.618 1.604 C 274.318 -0.496 279.318 1.104 289.318 3.604 Z " fill="rgb(255,253,196)"/><path d=" M 278.218 46.803 C 288.218 43.803 309.518 35.303 317.818 27.003 C 315.918 29.003 317.818 25.503 314.018 27.303 C 294.418 36.903 249.818 49.803 240.118 51.203 C 249.618 51.803 268.018 49.803 278.218 46.803 Z " fill="rgb(255,253,196)"/><linearGradient id="_lgradient_3" x1="-0.00027602617078004155" y1="0.4997065610291061" x2="0.9998145265484754" y2="0.4997065610291061" gradientTransform="matrix(97.902,0,0,40.145,228.056,11.063)" gradientUnits="userSpaceOnUse"><stop offset="0%" stop-opacity="1" style="stop-color:rgb(214,117,105)"/><stop offset="100%" stop-opacity="1" style="stop-color:rgb(227,158,127)"/></linearGradient><path d=" M 324.318 12.103 C 315.618 9.503 295.818 11.803 273.918 18.703 C 252.018 25.603 232.918 35.703 228.118 43.003 C 227.518 47.703 231.218 51.103 240.118 51.203 C 249.018 51.303 262.218 49.803 277.418 45.303 C 289.118 41.803 306.518 36.803 320.018 25.203 L 320.618 24.703 L 320.918 24.403 L 321.718 23.703 L 322.018 23.403 C 326.618 18.903 326.918 15.003 324.318 12.103 Z " fill="url(#_lgradient_3)"/><path d=" M 280.77 40.425 C 302.008 33.769 318.194 25.084 316.923 21.026 C 315.651 16.968 297.403 19.074 276.164 25.73 C 254.926 32.386 238.739 41.071 240.011 45.129 C 241.283 49.187 259.531 47.081 280.77 40.425 Z " fill="rgb(107,49,67)"/><path d=" M 316.818 22.604 C 317.032 22.135 317.102 21.613 317.018 21.104 L 316.618 20.504 L 294.618 29.904 L 311.118 19.104 C 310.388 19.004 309.648 19.004 308.918 19.104 L 293.718 29.304 C 292.83 29.099 291.906 29.099 291.018 29.304 L 299.318 20.104 L 296.218 20.704 L 289.818 29.404 L 285.318 30.204 L 290.118 22.004 L 287.218 22.704 L 284.118 30.504 L 281.118 31.304 L 283.318 23.704 L 279.918 24.704 L 278.818 31.904 L 279.118 31.904 L 278.318 32.204 L 275.918 25.904 L 273.418 26.704 L 277.418 32.404 L 275.418 33.104 L 269.618 28.004 L 266.618 29.104 L 273.718 33.704 L 271.618 34.504 L 262.718 30.504 L 259.018 32.004 L 269.918 35.204 L 267.418 36.404 L 251.918 35.304 L 248.218 37.204 L 265.718 37.204 L 264.518 38.004 L 243.218 40.504 C 242.326 41.168 241.52 41.941 240.818 42.804 L 263.418 38.904 C 263.318 39.204 263.218 39.404 263.318 39.504 C 263.418 39.604 263.518 39.804 263.718 39.904 L 240.218 45.704 C 240.808 46.324 241.578 46.744 242.418 46.904 L 265.918 40.104 C 267.193 40.005 268.461 39.838 269.718 39.604 L 250.918 47.104 L 253.818 46.804 L 272.118 39.104 L 272.818 39.104 L 261.018 45.704 L 266.618 44.504 L 275.118 38.504 L 279.718 37.204 L 285.118 35.304 L 292.318 36.704 L 299.218 33.904 L 288.118 34.104 L 288.218 34.104 L 305.118 31.104 C 307.018 30.204 308.718 29.204 310.218 28.304 L 291.518 32.404 L 292.718 31.704 L 316.818 22.604 Z " fill="rgb(122,56,76)"/><path d=" M 312.018 125.004 L 306.818 102.904 L 303.218 111.204 L 297.718 127.304 L 312.018 125.004 Z " fill="rgb(31,64,161)"/><path d=" M 234.818 84.103 L 309.918 94.303 C 316.318 97.303 318.318 98.503 321.418 106.203 L 323.718 111.903 C 325.918 113.703 326.118 114.003 325.518 116.603 L 309.318 127.303 L 318.218 157.703 L 249.718 166.003 L 235.218 134.003 L 213.118 120.703 C 212.623 120.411 212.21 119.998 211.918 119.503 C 211.018 117.603 211.218 115.803 214.618 114.203 C 216.718 107.003 216.618 105.703 218.318 100.103 C 222.018 87.603 224.918 83.903 234.818 84.103 Z " fill="rgb(35,71,161)"/><path d=" M 296.818 148.004 C 294.568 144.794 293.475 140.916 293.718 137.004 C 294.118 126.904 289.618 124.004 288.218 116.504 L 287.218 116.504 L 284.618 116.804 C 284.918 124.404 281.018 128.204 283.618 138.004 C 284.619 141.788 284.338 145.797 282.818 149.404 C 280.618 154.404 280.818 159.504 284.018 163.604 L 291.918 162.804 L 292.618 162.804 L 298.718 162.204 C 300.918 157.504 300.118 152.504 296.818 148.004 Z " fill="rgb(26,55,138)"/><path d=" M 310.618 131.604 L 287.118 124.404 L 290.918 145.104 L 317.218 154.204 L 310.618 131.604 Z " fill="rgb(26,55,138)"/><path d=" M 243.018 151.803 C 239.218 152.003 239.018 151.703 237.018 148.503 C 235.247 145.186 233.645 141.782 232.218 138.303 L 234.418 135.703 L 243.018 151.803 Z " fill="rgb(125,159,255)"/><path d=" M 290.018 142.704 L 264.818 136.204 L 263.418 142.704 L 268.518 147.304 L 273.718 163.104 L 268.918 163.604 L 246.918 167.904 L 246.318 171.104 L 244.718 168.904 C 244.261 168.278 243.944 167.561 243.789 166.802 C 243.634 166.042 243.644 165.259 243.818 164.504 L 244.918 158.604 L 243.018 151.804 L 242.118 151.804 C 240.118 151.604 240.118 151.004 238.618 148.404 C 236.156 144.136 234.016 139.691 232.218 135.104 L 235.218 134.004 L 242.118 119.104 C 270.818 129.004 280.818 133.304 293.018 139.004 C 305.218 144.704 305.518 144.704 307.718 146.504 C 309.918 148.304 308.718 147.404 290.018 142.704 Z " fill="rgb(26,55,138)"/><path d=" M 268.518 111.805 C 251.618 127.005 247.618 138.005 243.018 151.805 L 244.918 158.605 C 253.018 142.705 256.518 136.105 261.818 130.605 C 267.118 125.105 276.618 116.605 276.618 116.605 L 268.518 111.805 Z " fill="rgb(36,34,54)"/><path d=" M 244.618 88.604 L 233.518 94.804 L 244.618 108.704 L 255.618 99.804 L 244.618 88.604 Z " fill="rgb(42,82,194)"/><path d=" M 266.118 62.805 L 260.918 63.705 C 259.696 63.886 258.528 64.328 257.493 65.001 C 256.458 65.674 255.579 66.562 254.918 67.605 L 251.818 72.405 L 242.018 75.305 C 240.977 75.614 240.008 76.127 239.167 76.813 C 238.325 77.5 237.629 78.347 237.118 79.305 L 234.818 84.105 C 234.818 84.105 262.118 121.905 283.718 128.105 C 305.318 134.305 309.918 94.305 309.918 94.305 C 309.923 93.867 309.804 93.437 309.574 93.065 C 309.343 92.693 309.012 92.395 308.618 92.205 L 302.918 88.905 L 303.418 81.505 C 303.466 80.82 303.345 80.133 303.066 79.506 C 302.787 78.878 302.359 78.328 301.818 77.905 L 286.218 65.805 L 266.118 62.805 Z " fill="rgb(239,98,112)"/><path d=" M 249.618 73.005 C 251.218 69.205 251.918 64.705 261.518 62.805 L 268.518 61.805 L 267.918 67.505 L 254.618 76.305 L 249.618 73.005 Z " fill="rgb(255,112,126)"/><path d=" M 260.918 63.705 C 259.696 63.886 258.528 64.328 257.493 65.001 C 256.458 65.674 255.579 66.562 254.918 67.605 L 251.818 72.405 L 242.018 75.305 C 240.977 75.614 240.008 76.127 239.167 76.813 C 238.325 77.5 237.629 78.347 237.118 79.305 L 234.818 84.105 C 241.268 92.787 248.319 101.007 255.918 108.705 L 258.918 101.105 L 276.618 101.105 C 276.618 101.105 274.518 93.805 273.818 90.505 C 273.118 87.205 271.518 85.305 276.418 84.505 L 272.318 63.805 L 266.118 62.805 L 260.918 63.705 Z " fill="rgb(224,81,100)"/><path d=" M 261.918 73.503 C 257.118 69.903 257.418 70.203 260.118 68.503 C 261.718 67.417 263.587 66.795 265.518 66.703 L 261.918 73.503 Z " fill="rgb(189,60,83)"/><path d=" M 255.618 77.004 C 259.718 83.204 284.018 109.504 287.718 112.004 C 291.418 114.504 286.218 118.004 286.218 118.004 C 279.227 114.566 272.479 110.657 266.018 106.304 C 257.818 100.404 252.918 96.704 250.618 94.504 C 248.318 92.304 247.618 90.404 252.118 93.304 C 256.911 96.096 261.969 98.408 267.218 100.204 L 268.518 98.704 L 256.418 81.504 L 255.618 77.004 Z " fill="rgb(224,81,100)"/><path d=" M 295.618 74.704 C 300.918 79.304 303.618 78.104 291.018 95.204 L 288.018 93.304 L 279.318 83.404 L 290.418 69.504 L 295.618 74.704 Z " fill="rgb(199,65,83)"/><path d=" M 294.018 28.603 C 293.718 27.503 286.518 28.703 277.918 31.303 C 269.318 33.903 262.618 36.803 262.918 37.803 C 264.718 52.103 264.418 64.703 261.918 73.503 L 288.018 93.303 C 299.018 66.903 295.618 43.503 294.018 28.603 Z " fill="rgb(255,182,133)"/><path d=" M 274.018 69.005 C 277.518 73.005 284.018 72.005 286.718 69.305 C 290.218 72.705 292.218 72.205 294.618 69.205 C 297.018 66.205 284.018 63.305 284.018 63.305 L 274.018 69.005 Z " fill="rgb(254,155,119)"/><path d=" M 276.418 84.504 C 275.339 76.077 274.705 67.598 274.518 59.104 C 274.118 50.804 273.818 40.904 273.918 32.504 C 267.418 34.704 262.718 36.904 262.918 37.804 C 264.718 52.104 264.418 64.704 261.918 73.504 L 276.418 84.504 Z " fill="rgb(254,155,119)"/><g style="opacity:0.4;"><g style="opacity:0.4;"><g opacity="0.4"><path d=" M 294.018 28.603 C 293.718 27.503 286.518 28.703 277.918 31.303 C 269.318 33.903 262.618 36.803 262.918 37.803 C 263.218 38.803 263.318 41.403 263.518 43.203 C 272.818 42.103 285.818 43.503 295.618 46.503 C 295.318 39.703 294.518 33.703 294.018 28.603 Z " fill="rgb(168,56,126)"/></g></g></g><path d=" M 274.418 71.305 L 271.618 66.905 L 274.418 57.305 C 274.671 60.628 276.046 63.766 278.318 66.205 C 279.418 67.205 278.918 67.405 278.318 69.505 C 277.718 71.605 275.618 75.805 275.818 79.405 C 276.018 83.005 274.418 71.305 274.418 71.305 Z " fill="rgb(254,155,119)"/><path d=" M 272.018 166.304 L 266.218 195.904 L 321.118 195.904 L 321.118 211.304 L 334.118 211.304 L 334.618 221.804 L 363.918 221.804 L 362.818 211.404 L 367.318 207.204 C 367.672 206.854 367.945 206.431 368.118 205.965 C 368.291 205.498 368.359 205 368.318 204.504 L 365.618 175.604 C 365.375 172.909 364.584 170.292 363.295 167.913 C 362.006 165.534 360.246 163.443 358.121 161.768 C 355.996 160.093 353.552 158.868 350.938 158.169 C 348.324 157.471 345.595 157.312 342.918 157.704 L 272.018 166.304 Z " fill="rgb(35,34,51)"/><path d=" M 350.418 271.305 L 349.618 272.005 C 349.184 272.353 348.898 272.854 348.818 273.405 L 348.618 274.805 C 348.534 275.51 348.712 276.222 349.118 276.805 C 351.018 279.405 353.118 280.005 355.518 280.805 C 358.273 281.436 360.842 282.703 363.018 284.505 C 366.69 287.23 371.059 288.86 375.618 289.205 C 380.718 289.605 382.718 287.305 382.618 285.405 C 382.518 283.505 379.918 281.705 379.918 281.705 L 350.418 271.305 Z " fill="rgb(79,36,49)"/><path d=" M 349.618 266.303 C 350.418 259.403 346.618 255.303 341.918 246.103 C 337.218 236.903 335.118 226.103 333.418 212.203 L 358.418 212.203 C 358.418 212.203 363.818 245.703 365.318 252.903 C 366.218 257.303 366.718 264.303 371.418 270.103 C 377.618 277.903 382.018 281.603 381.018 284.303 C 380.018 287.003 376.518 288.103 369.518 285.303 C 367.618 284.503 365.518 283.003 363.018 281.603 C 360.518 280.203 357.218 279.103 355.218 278.103 C 350.118 275.703 348.718 274.503 349.618 266.303 Z " fill="rgb(107,49,63)"/><path d=" M 369.418 281.303 C 365.518 277.303 362.218 274.403 361.618 272.103 C 361.018 269.803 360.518 266.103 359.818 262.803 C 359.118 259.503 348.118 229.703 345.118 213.103 L 342.418 212.203 L 333.418 212.203 C 335.118 226.103 337.218 236.903 341.918 246.103 C 346.618 255.303 350.418 259.403 349.618 266.303 C 348.818 273.203 350.118 275.703 355.218 278.103 C 357.218 279.103 359.818 279.803 363.018 281.603 C 366.218 283.403 367.618 284.503 369.518 285.303 C 373.618 286.903 376.418 287.203 378.318 286.703 C 374.984 285.594 371.942 283.749 369.418 281.303 Z " fill="rgb(89,37,52)"/><clipPath id="_clipPath_VovXtPnFdfPzcl2QpajcYHGkhjvLb0Fv"><path d=" M -265.69 -581.406 L 598.726 -581.406 L 598.726 581.406 L -265.69 581.406 L -265.69 -581.406 Z  M 341.118 213.104 C 341.618 226.904 345.818 239.904 348.818 245.604 C 351.818 251.304 354.418 257.404 355.218 269.504 L 341.118 213.104 Z " fill-rule="evenodd" fill="rgb(255,255,255)"/></clipPath><g clip-path="url(#_clipPath_VovXtPnFdfPzcl2QpajcYHGkhjvLb0Fv)"><mask id="_mask_AjSb1HcOAo3QneU0jI2c7zXMK9OOujU1" x="-200%" y="-200%" width="400%" height="400%"><rect x="-200%" y="-200%" width="400%" height="400%" style="fill:white;"/><path d=" M 341.118 213.104 C 341.618 226.904 345.818 239.904 348.818 245.604 C 351.818 251.304 354.418 257.404 355.218 269.504" fill="black" stroke="none"/></mask><path d=" M 341.118 213.104 C 341.618 226.904 345.818 239.904 348.818 245.604 C 351.818 251.304 354.418 257.404 355.218 269.504" fill="none" mask="url(#_mask_AjSb1HcOAo3QneU0jI2c7zXMK9OOujU1)" vector-effect="non-scaling-stroke" stroke-width="4" stroke="rgb(79,36,49)" stroke-opacity="100" stroke-linejoin="miter" stroke-linecap="round" stroke-miterlimit="10"/><path d=" M 341.118 213.104 C 341.618 226.904 345.818 239.904 348.818 245.604 C 351.818 251.304 354.418 257.404 355.218 269.504" fill="none"/></g><path d=" M 341.118 213.104 C 341.618 226.904 345.818 239.904 348.818 245.604 C 351.818 251.304 354.418 257.404 355.218 269.504" fill="none"/><path d=" M 367.718 263.304 C 367.228 262.077 366.859 260.804 366.618 259.504 C 366.143 259 365.569 258.598 364.933 258.323 C 364.297 258.048 363.611 257.906 362.918 257.904 C 360.218 258.104 358.218 260.104 357.418 263.404 C 356.618 266.704 355.318 269.404 353.918 269.904 C 352.518 270.404 351.618 269.804 350.018 268.704 C 349.941 268.626 349.846 268.568 349.742 268.533 C 349.638 268.498 349.527 268.488 349.418 268.504 L 349.418 270.804 C 350.515 271.558 351.792 272.007 353.118 272.104 L 354.618 271.904 C 356.818 271.104 358.318 268.504 359.418 263.904 C 360.018 261.504 361.318 260.104 363.018 260.004 C 364.718 259.904 366.518 261.204 367.718 263.304 Z " fill="rgb(79,36,49)"/><path d=" M 363.918 203.304 C 361.418 203.404 356.918 203.604 341.518 206.404 L 334.118 212.604 L 334.318 215.904 L 352.618 220.104 C 352.618 220.104 359.118 217.004 362.918 212.104 L 362.918 211.404 L 364.418 210.004 C 367.718 203.804 366.418 203.204 363.918 203.304 Z " fill="rgb(28,27,41)"/><path d=" M 334.618 221.803 L 363.918 221.803 L 362.818 211.403 L 362.618 208.703 L 351.718 209.403 C 347.018 209.803 327.118 210.103 327.118 210.103 L 327.518 211.303 L 334.118 211.303 L 334.618 221.803 Z " fill="rgb(40,38,59)"/><path d=" M 332.618 186.104 C 342.718 181.904 345.318 180.704 347.418 180.004 C 349.518 179.304 347.418 177.904 344.318 176.404 C 341.218 174.904 340.318 176.404 332.618 186.104 Z " fill="rgb(28,27,41)"/><path d=" M 298.618 133.604 C 296.383 130.387 295.291 126.514 295.518 122.604 C 295.918 112.504 291.418 109.604 290.018 102.104 L 289.018 102.104 L 286.418 102.304 C 286.718 110.004 282.818 113.804 285.418 123.604 C 286.419 127.354 286.137 131.332 284.618 134.904 C 282.418 140.004 282.618 145.104 285.818 149.204 L 286.418 149.204 C 291.178 149.68 295.985 149.135 300.518 147.604 C 302.718 143.004 301.918 138.104 298.618 133.604 Z " fill="rgb(184,197,255)"/><path d=" M 294.518 114.305 C 293.218 110.205 291.118 107.305 290.218 102.805 L 289.718 102.805 C 289.718 102.805 292.018 110.005 293.618 113.305 C 294.018 114.105 294.318 114.305 294.518 114.305 Z " fill="rgb(224,230,255)"/><path d=" M 287.418 102.305 L 286.418 102.305 C 286.718 110.005 282.818 113.805 285.418 123.605 C 285.723 124.853 285.924 126.124 286.018 127.405 L 294.718 120.905 C 291.796 114.908 289.355 108.689 287.418 102.305 Z " fill="rgb(156,168,245)"/><path d=" M 285.618 131.804 C 285.498 132.449 285.331 133.084 285.118 133.704 C 287.209 133.929 289.261 134.433 291.218 135.204 C 291.218 135.204 296.718 142.304 300.918 146.604 C 302.518 142.204 301.618 137.704 298.618 133.604 C 297.92 132.525 297.318 131.387 296.818 130.204 L 287.718 129.504 L 285.618 131.804 Z " fill="rgb(156,168,245)"/><path d=" M 329.518 126.504 L 325.518 116.604 L 312.018 125.004 L 292.718 118.004 L 292.718 131.204 L 298.618 133.604 C 316.018 140.804 319.318 145.104 326.818 144.404 C 334.318 143.704 332.818 134.604 329.518 126.504 Z " fill="rgb(254,167,127)"/><path d=" M 319.418 120.404 L 323.518 129.504 L 312.318 125.804 L 312.018 125.004 L 319.418 120.404 Z " fill="rgb(250,142,112)"/><path d=" M 327.918 272.504 L 327.118 273.204 C 326.911 273.354 326.741 273.549 326.62 273.774 C 326.499 273.999 326.43 274.249 326.418 274.504 L 326.118 276.004 C 326.034 276.709 326.212 277.421 326.618 278.004 C 328.518 280.604 330.718 281.204 333.018 281.904 C 335.785 282.637 338.372 283.93 340.618 285.704 C 344.271 288.465 348.65 290.098 353.218 290.404 C 358.218 290.804 360.218 288.504 360.218 286.504 C 360.218 284.504 357.418 282.904 357.418 282.904 L 327.918 272.504 Z " fill="rgb(79,36,49)"/><path d=" M 327.118 267.505 C 327.918 260.605 324.118 256.505 319.418 247.305 C 314.718 238.105 312.618 227.205 310.918 213.305 L 335.918 213.305 C 335.918 213.305 341.418 246.905 342.918 254.105 C 343.818 258.505 344.318 265.505 348.918 271.305 C 355.118 279.105 359.518 282.805 358.518 285.405 C 357.518 288.005 354.018 289.305 347.018 286.505 C 344.819 285.39 342.682 284.154 340.618 282.805 C 337.318 280.905 334.718 280.305 332.718 279.305 C 327.718 276.905 326.218 275.705 327.118 267.505 Z " fill="rgb(107,49,63)"/><path d=" M 346.918 282.505 C 343.018 278.505 339.718 275.605 339.218 273.305 C 338.718 271.005 338.018 267.305 337.318 263.905 C 336.618 260.505 325.618 230.805 322.618 214.205 L 320.018 213.305 L 310.918 213.305 C 312.618 227.205 314.718 238.105 319.418 247.305 C 324.118 256.505 327.918 260.605 327.118 267.505 C 326.318 274.405 327.718 276.905 332.718 279.305 C 334.718 280.305 337.318 280.905 340.618 282.805 C 342.682 284.154 344.819 285.39 347.018 286.505 C 351.118 288.105 354.018 288.405 355.918 287.805 C 352.55 286.755 349.47 284.941 346.918 282.505 Z " fill="rgb(97,41,54)"/><clipPath id="_clipPath_bTgXZT3eEovNQxayNKd5vr4VZ2KquKlO"><path d=" M -265.69 -581.406 L 598.726 -581.406 L 598.726 581.406 L -265.69 581.406 L -265.69 -581.406 Z  M 318.618 214.203 C 319.118 228.103 323.318 241.103 326.318 246.703 C 329.318 252.303 331.918 258.603 332.718 270.703 L 318.618 214.203 Z " fill-rule="evenodd" fill="rgb(255,255,255)"/></clipPath><g clip-path="url(#_clipPath_bTgXZT3eEovNQxayNKd5vr4VZ2KquKlO)"><mask id="_mask_itc4aiq064u81IhbAqO51bO7o4MtaCrS" x="-200%" y="-200%" width="400%" height="400%"><rect x="-200%" y="-200%" width="400%" height="400%" style="fill:white;"/><path d=" M 318.618 214.203 C 319.118 228.103 323.318 241.103 326.318 246.703 C 329.318 252.303 331.918 258.603 332.718 270.703" fill="black" stroke="none"/></mask><path d=" M 318.618 214.203 C 319.118 228.103 323.318 241.103 326.318 246.703 C 329.318 252.303 331.918 258.603 332.718 270.703" fill="none" mask="url(#_mask_itc4aiq064u81IhbAqO51bO7o4MtaCrS)" vector-effect="non-scaling-stroke" stroke-width="4" stroke="rgb(79,36,49)" stroke-opacity="100" stroke-linejoin="miter" stroke-linecap="round" stroke-miterlimit="10"/><path d=" M 318.618 214.203 C 319.118 228.103 323.318 241.103 326.318 246.703 C 329.318 252.303 331.918 258.603 332.718 270.703" fill="none"/></g><path d=" M 318.618 214.203 C 319.118 228.103 323.318 241.103 326.318 246.703 C 329.318 252.303 331.918 258.603 332.718 270.703" fill="none"/><path d=" M 246.918 167.904 L 241.518 195.904 L 296.318 195.904 L 298.218 205.604 C 298.446 206.685 298.983 207.676 299.765 208.457 C 300.546 209.238 301.537 209.776 302.618 210.004 L 307.518 211.004 L 309.918 221.804 L 339.518 221.804 L 338.318 213.504 L 342.018 212.204 C 342.644 212.018 343.181 211.612 343.531 211.06 C 343.88 210.509 344.018 209.849 343.918 209.204 L 340.918 175.604 C 340.675 172.909 339.884 170.292 338.595 167.913 C 337.306 165.534 335.545 163.443 333.421 161.768 C 331.296 160.093 328.852 158.868 326.238 158.169 C 323.624 157.471 320.895 157.312 318.218 157.704 C 318.218 157.704 270.218 163.304 260.618 164.704 C 251.018 166.104 246.918 167.904 246.918 167.904 Z " fill="rgb(28,27,41)"/><path d=" M 251.518 175.004 C 259.572 170.295 267.961 166.184 276.618 162.704 C 274.018 161.604 272.218 161.904 264.518 164.204 L 245.818 173.704 L 251.518 175.004 Z " fill="rgb(115,53,68)"/><path d=" M 312.018 125.004 L 326.518 130.304 C 326.559 130.331 326.593 130.369 326.616 130.412 C 326.64 130.456 326.652 130.504 326.652 130.554 C 326.652 130.604 326.64 130.652 326.616 130.696 C 326.593 130.739 326.559 130.777 326.518 130.804 L 292.818 119.804 L 292.818 118.004 L 312.018 125.004 Z " fill="rgb(255,208,150)"/><path d=" M 190.318 188.504 L 172.818 192.704 L 170.518 195.904 L 192.718 195.904 L 190.318 188.504 Z " fill="rgb(247,220,158)"/><path d=" M 254.718 173.304 L 241.218 173.904 C 240.166 173.942 239.156 174.325 238.343 174.994 C 237.53 175.662 236.959 176.579 236.718 177.604 L 232.218 195.904 L 257.418 195.904 L 258.318 176.904 C 258.332 176.428 258.248 175.953 258.072 175.51 C 257.896 175.067 257.632 174.665 257.295 174.328 C 256.957 173.991 256.555 173.726 256.112 173.55 C 255.669 173.374 255.195 173.29 254.718 173.304 Z " fill="rgb(79,36,49)"/><path d=" M 249.218 195.905 C 249.618 192.505 250.518 184.905 251.018 180.505 C 251.518 176.105 251.918 174.205 253.518 173.305 L 252.118 173.305 L 241.218 173.805 C 240.166 173.843 239.156 174.225 238.343 174.894 C 237.53 175.563 236.959 176.48 236.718 177.505 L 232.218 195.805 L 249.218 195.905 Z " fill="rgb(64,29,43)"/><path d=" M 284.418 6.904 L 289.318 7.804 L 287.918 10.104 L 284.418 6.904 Z " fill="rgb(255,205,143)"/><path d=" M 293.875 56.647 C 294.079 55.618 293.673 54.67 292.969 54.531 C 292.265 54.391 291.528 55.113 291.325 56.142 C 291.121 57.171 291.526 58.119 292.231 58.258 C 292.935 58.398 293.671 57.676 293.875 56.647 Z " fill="rgb(84,50,71)"/><path d=" M 281.7 57.563 C 282.471 57.132 282.638 55.962 282.072 54.95 C 281.506 53.937 280.422 53.466 279.651 53.897 C 278.88 54.328 278.713 55.499 279.279 56.511 C 279.845 57.523 280.929 57.995 281.7 57.563 Z " fill="rgb(84,50,71)"/><path d=" M 271.218 2.103 C 271.218 2.103 273.718 1.903 274.818 2.803 C 273.618 4.203 271.218 2.103 271.218 2.103 Z " fill="rgb(255,208,143)"/><path d=" M 279.318 2.104 C 284.618 0.804 285.118 3.604 285.118 3.604 L 279.318 2.104 Z " fill="rgb(255,253,196)"/><path d=" M 239.918 35.203 C 240.118 37.103 244.518 38.403 244.518 38.403 L 242.718 39.703 C 238.218 39.603 237.018 37.403 237.018 37.403 C 237.853 36.511 238.834 35.767 239.918 35.203 Z " fill="rgb(212,101,91)"/><path d=" M 228.418 43.604 C 229.118 45.704 238.418 44.504 238.418 44.504 L 238.718 45.604 C 231.818 46.804 228.918 46.204 228.918 46.204 C 228.511 45.401 228.338 44.5 228.418 43.604 Z " fill="rgb(212,101,91)"/><path d=" M 262.518 23.704 C 263.118 26.204 266.218 27.904 266.218 27.904 L 271.218 26.404 C 270.282 24.929 269.606 23.306 269.218 21.604 C 269.218 21.604 265.718 22.504 262.518 23.704 Z " fill="rgb(220,115,99)"/><path d=" M 303.218 84.904 C 303.218 84.904 303.118 86.604 302.918 88.904 C 302.521 92.278 301.886 95.62 301.018 98.904 C 300.318 101.904 300.318 101.804 299.318 101.104 L 295.818 98.604 C 297.818 95.704 301.418 90.204 303.218 84.904 Z " fill="rgb(209,70,88)"/><path d=" M 268.218 101.104 L 267.218 100.204 C 260.518 94.404 248.818 82.404 243.318 74.904 L 251.618 72.404 L 251.818 72.404 C 257.318 82.604 267.218 95.804 271.518 101.104 L 272.318 102.104 C 275.918 106.304 274.518 106.404 268.218 101.104 Z " fill="rgb(204,67,85)"/><path d=" M 256.918 72.404 L 269.818 84.904 L 272.318 95.804 L 258.118 77.804 L 256.918 72.404 Z " fill="rgb(230,85,104)"/><path d=" M 288.818 91.303 L 262.118 72.603 L 261.718 72.203 C 260.918 71.503 260.318 71.603 261.918 73.503 L 288.018 93.303 C 288.318 92.603 288.518 91.903 288.818 91.303 Z " fill="rgb(189,60,83)"/><path d=" M 240.218 25.305 C 243.184 22.532 246.515 20.177 250.118 18.305 C 245.118 19.405 241.518 21.005 240.218 25.305 Z " fill="rgb(235,147,99)"/><line x1="294.918" y1="3.604" x2="303.518" y2="5.504"/><path d=" M 307.018 120.505 C 311.718 114.605 315.418 110.905 316.918 110.005 C 318.418 109.105 318.218 109.505 315.918 112.705 C 313.618 115.905 309.518 122.505 309.518 122.505 L 307.018 120.505 Z " fill="rgb(26,55,138)"/><path d=" M 310.618 102.105 C 310.618 102.105 310.518 110.405 310.618 111.405 C 310.718 112.405 311.018 111.305 311.718 109.005 C 312.418 106.705 313.018 104.905 313.118 104.305 C 313.218 103.705 313.418 103.505 312.018 102.205 C 310.618 100.905 310.618 100.905 310.618 102.105 Z " fill="rgb(42,82,194)"/><path d=" M 327.918 142.204 C 325.308 142.052 322.757 141.372 320.418 140.204 C 319.118 139.604 319.918 141.104 322.218 142.504 C 324.518 143.904 329.718 142.404 327.918 142.204 Z " fill="rgb(250,142,112)"/><path d=" M 282.918 132.604 L 289.618 131.804 C 291.106 133.096 292.957 133.899 294.918 134.104 L 304.418 140.404 L 308.318 142.704 C 308.318 142.704 314.318 138.304 308.318 120.704 C 307.818 119.004 307.518 118.604 304.418 119.304 L 299.218 117.504 L 296.618 113.804 C 296.256 113.288 295.777 112.866 295.221 112.57 C 294.665 112.275 294.047 112.115 293.418 112.104 L 281.918 112.104 C 281.52 112.104 281.138 112.262 280.857 112.543 C 280.576 112.824 280.418 113.206 280.418 113.604 C 280.389 113.986 280.508 114.365 280.749 114.662 C 280.991 114.96 281.338 115.154 281.718 115.204 L 291.118 116.904 L 284.218 120.304 C 283.669 120.592 283.228 121.049 282.958 121.607 C 282.688 122.165 282.604 122.794 282.718 123.404 C 282.88 124.094 283.186 124.741 283.618 125.304 C 282.018 126.804 283.118 129.004 283.118 129.004 C 281.218 129.604 280.518 130.004 280.318 131.604 C 280.118 133.204 281.218 132.904 282.918 132.604 Z " fill="rgb(89,41,56)"/><path d=" M 305.718 137.204 L 294.918 130.804 C 293.917 130.26 292.949 129.659 292.018 129.004 C 290.518 127.904 290.718 126.804 291.418 126.604 C 291.646 126.536 291.854 126.415 292.026 126.25 C 292.198 126.086 292.329 125.883 292.407 125.659 C 292.485 125.434 292.509 125.194 292.476 124.958 C 292.443 124.723 292.355 124.498 292.218 124.304 C 291.618 122.804 291.318 122.204 292.118 121.404 C 292.918 120.604 293.418 120.304 293.018 119.804 C 292.618 119.304 291.718 118.204 292.418 117.304 C 293.118 116.404 293.918 116.704 293.418 115.204 C 292.918 113.704 292.418 112.104 293.418 112.104 L 281.918 112.104 C 281.52 112.104 281.138 112.262 280.857 112.543 C 280.576 112.824 280.418 113.206 280.418 113.604 C 280.389 113.986 280.508 114.365 280.749 114.662 C 280.991 114.96 281.338 115.154 281.718 115.204 L 291.118 116.904 L 284.218 120.304 C 283.669 120.592 283.228 121.049 282.958 121.607 C 282.688 122.165 282.604 122.794 282.718 123.404 C 282.88 124.094 283.186 124.741 283.618 125.304 C 282.018 126.804 283.118 129.004 283.118 129.004 C 281.218 129.604 280.518 130.004 280.318 131.604 C 280.118 133.204 281.218 132.904 282.918 132.604 L 289.618 131.804 C 291.106 133.096 292.957 133.899 294.918 134.104 L 304.418 140.404 L 305.718 141.204 L 305.718 137.204 Z " fill="rgb(79,36,49)"/><path d=" M 304.418 140.405 L 308.318 142.705 C 308.318 142.705 314.318 138.305 308.318 120.705 C 307.818 119.005 307.518 118.605 304.418 119.305 L 305.718 119.805 C 307.018 124.205 308.018 132.805 304.418 140.405 Z " fill="rgb(107,49,63)"/><path d=" M 295.618 112.805 C 296.818 119.705 294.718 127.205 294.718 127.205 L 299.818 129.605 C 300.518 126.905 300.418 123.605 299.218 117.505 L 296.618 113.805 C 296.364 113.401 296.022 113.059 295.618 112.805 Z " fill="rgb(115,53,68)"/><path d=" M 283.618 125.305 C 288.318 123.005 292.218 120.905 292.218 120.905 L 292.018 120.305 L 283.218 124.805 L 283.618 125.305 Z " fill="rgb(64,29,43)"/><path d=" M 283.118 129.004 L 291.418 126.604 L 290.918 125.904 L 282.918 128.604 L 283.118 129.004 Z " fill="rgb(64,29,43)"/><path d=" M 291.118 116.903 L 292.418 116.303 L 292.318 115.203 L 290.018 116.703 L 291.118 116.903 Z " fill="rgb(64,29,43)"/><path d=" M 305.718 137.203 C 305.346 138.294 304.912 139.362 304.418 140.403 L 308.318 142.703 C 309.186 141.931 309.812 140.924 310.118 139.803 L 305.718 137.203 Z " fill="rgb(89,41,56)"/><path d=" M 235.218 134.004 C 234.199 138.023 232.652 141.89 230.618 145.504 C 227.618 150.304 221.418 159.804 221.418 159.804 C 221.418 159.804 212.918 178.304 204.318 187.804 L 190.518 184.604 C 190.518 184.604 199.818 158.204 203.018 150.604 C 205.418 144.904 211.018 128.704 213.718 121.004 C 224.418 125.404 235.218 134.004 235.218 134.004 Z " fill="rgb(214,130,114)"/><path d=" M 212.618 185.103 L 209.718 187.003 L 202.918 195.903 L 166.518 195.903 L 167.618 194.303 C 168.519 193.084 169.777 192.175 171.218 191.703 L 183.518 187.903 L 192.118 168.403 C 192.216 168.264 192.357 168.16 192.519 168.106 C 192.681 168.052 192.856 168.051 193.018 168.103 C 201.018 173.003 209.518 180.103 212.818 183.903 C 212.892 183.992 212.947 184.096 212.977 184.207 C 213.008 184.319 213.014 184.435 212.995 184.549 C 212.976 184.664 212.932 184.772 212.867 184.868 C 212.802 184.963 212.717 185.044 212.618 185.103 Z " fill="rgb(79,36,49)"/><path d=" M 216.318 147.404 C 218.818 155.104 219.318 157.304 220.718 155.504 C 221.848 154.151 222.821 152.675 223.618 151.104 C 223.818 150.704 224.318 149.704 220.618 147.404 C 216.918 145.104 215.018 143.504 216.318 147.404 Z " fill="rgb(212,101,91)"/><path d=" M 212.818 183.903 C 209.518 180.103 201.018 173.003 193.018 168.103 C 192.856 168.051 192.681 168.052 192.519 168.106 C 192.357 168.16 192.216 168.264 192.118 168.403 L 191.018 171.103 C 203.718 180.403 209.718 187.003 209.718 187.003 L 212.618 185.103 C 212.717 185.044 212.802 184.963 212.867 184.868 C 212.932 184.772 212.976 184.664 212.995 184.549 C 213.014 184.435 213.008 184.319 212.977 184.207 C 212.947 184.096 212.892 183.992 212.818 183.903 Z " fill="rgb(87,40,54)"/><path d=" M 194.718 192.205 C 190.618 193.605 186.518 195.205 180.218 195.905 L 202.918 195.905 L 204.118 194.305 C 204.618 189.105 198.918 190.805 194.718 192.205 Z " fill="rgb(66,30,41)"/><path d=" M 254.718 173.305 C 251.118 173.505 250.418 174.605 249.818 179.905 C 249.218 185.205 248.918 186.505 248.718 187.705 C 248.694 187.873 248.61 188.026 248.481 188.136 C 248.352 188.247 248.188 188.307 248.018 188.305 L 233.518 188.305 C 233.318 188.305 233.218 188.105 233.218 187.905 L 235.818 177.905 C 236.091 176.733 236.754 175.688 237.699 174.943 C 238.644 174.198 239.815 173.796 241.018 173.805 L 254.718 173.305 Z " fill="rgb(89,41,56)"/><path d=" M 238.718 185.004 C 238.668 185.414 238.568 185.818 238.418 186.204 C 238.418 186.257 238.439 186.308 238.477 186.345 C 238.514 186.383 238.565 186.404 238.618 186.404 L 242.718 186.404 C 242.862 186.406 243.001 186.356 243.111 186.265 C 243.221 186.173 243.294 186.045 243.318 185.904 L 243.618 184.804 C 243.618 184.704 243.618 184.604 243.518 184.604 L 239.318 184.604 C 239.191 184.61 239.069 184.65 238.963 184.72 C 238.857 184.791 238.773 184.889 238.718 185.004 Z " fill="rgb(115,53,68)"/><path d=" M 354.118 176.004 C 356.726 176.542 359.298 177.244 361.818 178.104 C 363.018 178.604 363.118 178.704 361.018 181.104 C 358.918 183.504 358.618 184.504 356.518 181.204 C 354.418 177.904 352.718 175.604 354.118 176.004 Z " fill="rgb(28,27,41)"/><path d=" M 307.518 211.004 L 327.018 214.804 C 330.118 215.404 330.618 215.504 338.318 213.504 L 339.518 221.804 L 309.918 221.804 L 307.518 211.004 Z " fill="rgb(35,33,51)"/><path d=" M 296.318 195.904 C 305.718 190.304 308.118 188.704 310.118 187.804 C 312.118 186.904 309.818 185.604 306.618 184.604 C 303.418 183.604 302.618 185.104 296.318 195.904 Z " fill="rgb(23,22,33)"/><path d=" M 313.918 200.603 C 322.718 202.603 329.818 204.203 333.418 204.803 C 337.018 205.403 335.818 203.903 331.218 200.303 C 328.06 197.698 324.718 195.325 321.218 193.203 C 319.018 192.003 318.418 192.803 314.518 196.103 C 310.618 199.403 310.418 199.803 313.918 200.603 Z " fill="rgb(23,22,33)"/><path d=" M 233.818 107.705 C 242.318 117.405 243.818 121.205 243.818 121.205 L 242.018 124.405 C 242.018 124.405 241.318 123.005 237.618 116.905 C 233.918 110.805 229.118 102.405 233.818 107.705 Z " fill="rgb(26,55,138)"/><path d=" M 290.075 101.616 L 286.104 102.097 C 285.61 102.157 285.259 102.603 285.318 103.094 C 285.377 103.584 285.825 103.934 286.319 103.874 L 290.29 103.394 C 290.783 103.334 291.135 102.888 291.076 102.397 C 291.017 101.906 290.568 101.557 290.075 101.616 Z " fill="rgb(184,197,255)"/><path d=" M 345.218 264.404 C 344.76 263.199 344.392 261.963 344.118 260.704 C 343.642 260.2 343.069 259.798 342.433 259.523 C 341.796 259.247 341.111 259.105 340.418 259.104 C 337.718 259.304 335.718 261.304 334.918 264.604 C 334.118 267.904 332.818 270.504 331.418 271.104 C 330.018 271.704 329.118 271.004 327.518 269.904 C 327.418 269.704 327.218 269.704 327.018 269.704 C 326.937 270.467 326.903 271.236 326.918 272.004 C 328.014 272.757 329.291 273.206 330.618 273.304 C 331.133 273.309 331.644 273.207 332.118 273.004 C 334.318 272.204 335.818 269.704 337.018 265.104 C 337.518 262.704 338.818 261.304 340.518 261.204 C 342.218 261.104 344.018 262.304 345.218 264.404 Z " fill="rgb(79,36,49)"/><path d=" M 287.218 102.205 L 290.118 101.805 L 290.318 102.605 L 286.418 102.605 L 287.218 102.205 Z " fill="rgb(224,230,255)"/><path d=" M 283.318 69.203 C 286.318 69.203 289.118 69.103 290.018 69.903 C 290.918 70.703 289.518 72.403 287.318 74.003 C 285.118 75.603 285.918 74.803 283.618 72.803 C 281.318 70.803 281.018 69.203 283.318 69.203 Z " fill="rgb(199,65,83)"/><path d=" M 284.518 69.305 L 282.018 69.705 C 281.718 70.505 282.418 71.805 283.618 72.805 C 284.818 73.805 286.318 74.705 287.318 74.005 L 288.318 73.205 C 287.918 72.305 286.718 70.005 284.518 69.305 Z " fill="rgb(168,44,60)"/><path d=" M 289.018 69.504 C 287.131 69.229 285.223 69.129 283.318 69.204 C 282.018 69.204 281.818 69.804 282.018 70.704 L 288.818 70.704 C 289.218 70.804 289.118 70.004 289.018 69.504 Z " fill="rgb(255,255,255)"/><path d=" M 299.718 65.303 C 299.818 65.203 299.818 65.003 299.918 64.903 C 300.222 64.042 300.25 63.108 300 62.23 C 299.749 61.352 299.231 60.574 298.518 60.003 C 298.627 60.271 298.674 60.561 298.654 60.85 C 298.635 61.139 298.549 61.42 298.405 61.67 C 298.26 61.921 298.06 62.136 297.819 62.297 C 297.579 62.459 297.305 62.564 297.018 62.603 C 296.035 62.647 295.052 62.512 294.118 62.203 C 292.906 61.721 291.599 61.524 290.298 61.628 C 288.997 61.732 287.738 62.134 286.618 62.803 C 282.618 60.703 279.918 62.503 276.318 62.503 C 275.336 62.525 274.357 62.39 273.418 62.103 C 270.318 61.203 270.418 59.803 271.118 58.203 C 266.718 59.203 266.918 63.903 268.918 65.903 C 270.018 67.303 272.118 67.903 274.918 67.303 C 279.318 71.003 281.418 71.303 286.618 67.903 C 290.818 71.503 294.818 71.103 297.218 66.703 C 297.718 66.697 298.209 66.565 298.646 66.321 C 299.083 66.076 299.451 65.727 299.718 65.303 Z " fill="rgb(107,49,67)"/><path d=" M 286.618 67.904 C 290.818 71.504 294.818 71.104 297.218 66.704 C 297.718 66.698 298.209 66.566 298.646 66.322 C 299.082 66.077 299.451 65.727 299.718 65.304 C 299.818 65.204 299.818 65.004 299.918 64.904 C 300.04 64.447 300.108 63.977 300.118 63.504 C 299.848 64.197 299.33 64.765 298.665 65.097 C 297.999 65.43 297.234 65.504 296.518 65.304 C 293.518 67.804 290.318 67.004 287.318 64.704 C 287.318 64.704 281.018 68.104 276.418 64.404 C 271.318 65.704 267.618 63.304 268.218 60.004 C 267.672 60.928 267.445 62.006 267.572 63.072 C 267.698 64.138 268.171 65.133 268.918 65.904 C 270.018 67.304 272.118 67.904 274.918 67.304 C 279.318 71.004 281.418 71.304 286.618 67.904 Z " fill="rgb(94,39,55)"/></g></g></g></g></svg>