<?xml version="1.0" encoding="UTF-8" standalone="no"?><!-- Generator: Gravit.io --><svg xmlns="http://www.w3.org/2000/svg" xmlns:xlink="http://www.w3.org/1999/xlink" style="isolation:isolate" viewBox="0 0 72 72" width="72pt" height="72pt"><defs><clipPath id="_clipPath_S7bF3vFtqf9QuaghZ3SXs0lyCDpuQ2y6"><rect width="72" height="72"/></clipPath></defs><g clip-path="url(#_clipPath_S7bF3vFtqf9QuaghZ3SXs0lyCDpuQ2y6)"><rect width="72" height="72" style="fill:rgb(0,0,0)" fill-opacity="0"/><path d=" M 23.5 72.5 L 10.7 71.8 C 7.92 71.8 5.24 70.69 3.28 68.72 C 1.31 66.76 0.2 64.08 0.2 61.3 L 0.2 10.7 C 0.2 7.92 1.31 5.24 3.28 3.28 C 5.24 1.31 7.92 0.2 10.7 0.2 L 61.3 0.2 C 64.08 0.2 66.76 1.31 68.72 3.28 C 70.69 5.24 71.8 7.92 71.8 10.7 L 72.5 23.5 L 71.5 23.5 C 70.7 23.5 69.94 23.18 69.38 22.62 C 68.82 22.06 68.5 21.3 68.5 20.5 L 68.5 10 C 68.5 10 68.5 10 68.5 10 C 68.5 8.28 67.81 6.62 66.6 5.4 C 65.38 4.19 63.72 3.5 62 3.5 C 62 3.5 62 3.5 62 3.5 L 10 3.5 C 10 3.5 10 3.5 10 3.5 C 8.28 3.5 6.62 4.19 5.4 5.4 C 4.19 6.62 3.5 8.28 3.5 10 C 3.5 10 3.5 10 3.5 10 L 3.5 62 C 3.5 62 3.5 62 3.5 62 C 3.5 63.72 4.19 65.38 5.4 66.6 C 6.62 67.81 8.28 68.5 10 68.5 C 10 68.5 10 68.5 10 68.5 L 20.5 68.5 C 21.3 68.5 22.06 68.82 22.62 69.38 C 23.18 69.94 23.5 70.7 23.5 71.5 L 23.5 72.5 Z  M 22.5 71.5 L 22.5 71.5 L 10 71.5 C 7.48 71.5 5.06 70.5 3.28 68.72 C 1.5 66.94 0.5 64.52 0.5 62 L 0.5 10 C 0.5 7.48 1.5 5.06 3.28 3.28 C 5.06 1.5 7.48 0.5 10 0.5 L 62 0.5 C 64.52 0.5 66.94 1.5 68.72 3.28 C 70.5 5.06 71.5 7.48 71.5 10 L 71.5 22.5 L 71.5 22.5 C 70.97 22.5 70.46 22.29 70.09 21.91 C 69.71 21.54 69.5 21.03 69.5 20.5 L 69.5 10 C 69.5 8.01 68.71 6.1 67.3 4.7 C 65.9 3.29 63.99 2.5 62 2.5 L 10 2.5 C 8.01 2.5 6.1 3.29 4.7 4.7 C 3.29 6.1 2.5 8.01 2.5 10 L 2.5 62 C 2.5 63.99 3.29 65.9 4.7 67.3 C 6.1 68.71 8.01 69.5 10 69.5 L 20.5 69.5 C 21.03 69.5 21.54 69.71 21.91 70.09 C 22.29 70.46 22.5 70.97 22.5 71.5 Z " fill-rule="evenodd" fill="rgb(0,0,0)" fill-opacity="0.1"/><path d=" M 23 72 L 10 72 C 4.481 72 0 67.519 0 62 L 0 10 C 0 4.481 4.481 0 10 0 L 62 0 C 67.519 0 72 4.481 72 10 L 72 23 L 71.5 23 C 70.12 23 69 21.88 69 20.5 L 69 10 C 69 8.14 68.26 6.36 66.95 5.05 C 65.64 3.74 63.86 3 62 3 L 10 3 C 8.14 3 6.36 3.74 5.05 5.05 C 3.74 6.36 3 8.14 3 10 L 3 62 C 3 63.86 3.74 65.64 5.05 66.95 C 6.36 68.26 8.14 69 10 69 L 20.5 69 C 21.88 69 23 70.12 23 71.5 L 23 72 L 23 72 Z " fill="rgb(154,171,182)"/></g></svg>