<?xml version="1.0" encoding="UTF-8" standalone="no"?><!-- Generator: Gravit.io --><svg xmlns="http://www.w3.org/2000/svg" xmlns:xlink="http://www.w3.org/1999/xlink" style="isolation:isolate" viewBox="0 0 18 18" width="18pt" height="18pt"><defs><clipPath id="_clipPath_qIfDVNOHUDwXXXnutJzQaM8XkzuZX12u"><rect width="18" height="18"/></clipPath></defs><g clip-path="url(#_clipPath_qIfDVNOHUDwXXXnutJzQaM8XkzuZX12u)"><rect width="18" height="18" style="fill:rgb(0,0,0)" fill-opacity="0"/><path d=" M 17.175 7.8 L 17.715 4.5 L 14.565 4.5 L 15.315 0 L 11.895 0 L 11.145 4.5 L 8.385 4.5 L 9.135 0 L 5.715 0 L 4.965 4.5 L 1.755 4.5 L 1.215 7.8 L 4.425 7.8 L 4.005 10.2 L 0.825 10.2 L 0.285 13.5 L 3.465 13.5 L 2.715 18 L 6.135 18 L 6.885 13.5 L 9.645 13.5 L 8.895 18 L 12.315 18 L 13.065 13.5 L 16.275 13.5 L 16.785 10.2 L 13.605 10.2 L 14.025 7.8 L 17.175 7.8 Z  M 10.185 10.2 L 7.425 10.2 L 7.845 7.8 L 10.605 7.8 L 10.185 10.2 Z " fill="rgb(108,130,207)"/></g></svg>