<?xml version="1.0" encoding="UTF-8" standalone="no"?><!-- Generator: Gravit.io --><svg xmlns="http://www.w3.org/2000/svg" xmlns:xlink="http://www.w3.org/1999/xlink" style="isolation:isolate" viewBox="0 0 216.104 290.703" width="216.104pt" height="290.703pt"><defs><clipPath id="_clipPath_G2ThjKeDLSxE7YZPdTwaa2ig7sMnwhrQ"><rect width="216.104" height="290.703"/></clipPath></defs><g clip-path="url(#_clipPath_G2ThjKeDLSxE7YZPdTwaa2ig7sMnwhrQ)"><rect width="216.104" height="290.703" style="fill:rgb(0,0,0)" fill-opacity="0"/><g><path d=" M 78.3 155.404 C 76 163.404 75.301 165.904 78.201 168.904 C 81.101 171.904 78.3 155.404 78.3 155.404 Z " fill="rgb(125,159,255)"/><path d=" M 66.6 84.505 C 69.8 77.605 69.7 77.305 75.5 75.305 L 67.8 86.205 L 66.6 84.505 Z " fill="rgb(255,112,126)"/><linearGradient id="_lgradient_0" x1="0.6010188239445258" y1="0.0841067479030208" x2="0.4200604918750397" y2="0.5501869902742382" gradientTransform="matrix(97.923,0,0,51.174,61.486,0.029)" gradientUnits="userSpaceOnUse"><stop offset="0%" stop-opacity="1" style="stop-color:rgb(255,194,133)"/><stop offset="100%" stop-opacity="1" style="stop-color:rgb(219,141,107)"/></linearGradient><path d=" M 155.5 23.403 L 155.2 23.703 L 154.4 24.403 L 154.1 24.703 L 153.5 25.203 C 140 36.803 122.6 41.803 110.9 45.303 C 95.7 49.803 83.1 51.203 73.6 51.203 C 61.3 51.103 58.9 44.703 64 37.003 L 67 33.403 L 82 15.203 L 82.7 14.303 C 92.6 2.603 101.5 -2.697 120.2 1.403 L 148.6 7.503 L 148.7 7.503 C 158.6 9.703 163.3 15.703 155.5 23.403 Z " fill="url(#_lgradient_0)"/><path d=" M 122.8 3.604 C 134.2 6.404 153.6 12.104 153.6 12.104 L 158.4 12.804 C 156.7 10.404 153.3 8.504 148.7 7.504 L 148.6 7.504 L 120.2 1.404 C 111.3 -0.596 104.7 -0.396 99.1 1.604 C 107.8 -0.496 112.8 1.104 122.8 3.604 Z " fill="rgb(255,253,196)"/><path d=" M 111.7 46.803 C 121.7 43.803 143 35.303 151.3 27.003 C 149.4 29.003 151.3 25.503 147.5 27.303 C 127.9 36.903 83.3 49.803 73.6 51.203 C 83.1 51.803 101.5 49.803 111.7 46.803 Z " fill="rgb(255,253,196)"/><linearGradient id="_lgradient_1" x1="-0.00028101323940887823" y1="0.4996975948762407" x2="0.9998051202941696" y2="0.4996975948762407" gradientTransform="matrix(97.902,0,0,40.145,61.538,11.063)" gradientUnits="userSpaceOnUse"><stop offset="0%" stop-opacity="1" style="stop-color:rgb(214,117,105)"/><stop offset="100%" stop-opacity="1" style="stop-color:rgb(227,158,127)"/></linearGradient><path d=" M 157.8 12.103 C 149.1 9.503 129.3 11.803 107.4 18.703 C 85.5 25.603 66.4 35.703 61.6 43.003 C 61 47.703 64.7 51.103 73.6 51.203 C 82.5 51.303 95.7 49.803 110.9 45.303 C 122.6 41.803 140 36.803 153.5 25.203 L 154.1 24.703 L 154.4 24.403 L 155.2 23.703 L 155.5 23.403 C 160.1 18.903 160.4 15.003 157.8 12.103 Z " fill="url(#_lgradient_1)"/><path d=" M 114.252 40.425 C 135.49 33.769 151.676 25.084 150.405 21.026 C 149.133 16.968 130.885 19.074 109.646 25.73 C 88.408 32.386 72.221 41.071 73.493 45.129 C 74.765 49.187 93.013 47.081 114.252 40.425 Z " fill="rgb(107,49,67)"/><path d=" M 150.3 22.604 C 150.514 22.135 150.584 21.613 150.5 21.104 L 150.1 20.504 L 128.1 29.904 L 144.6 19.104 C 143.87 19.004 143.13 19.004 142.4 19.104 L 127.2 29.304 C 126.312 29.099 125.388 29.099 124.5 29.304 L 132.8 20.104 L 129.7 20.704 L 123.3 29.404 L 118.8 30.204 L 123.6 22.004 L 120.7 22.704 L 117.6 30.504 L 114.6 31.304 L 116.8 23.704 L 113.4 24.704 L 112.3 31.904 L 112.6 31.904 L 111.8 32.204 L 109.4 25.904 L 106.9 26.704 L 110.9 32.404 L 108.9 33.104 L 103.1 28.004 L 100.1 29.104 L 107.2 33.704 L 105.1 34.504 L 96.2 30.504 L 92.5 32.004 L 103.4 35.204 L 100.9 36.404 L 85.4 35.304 L 81.7 37.204 L 99.2 37.204 L 98 38.004 L 76.7 40.504 C 75.808 41.168 75.002 41.941 74.3 42.804 L 96.9 38.904 C 96.8 39.204 96.7 39.404 96.8 39.504 C 96.9 39.604 97 39.804 97.2 39.904 L 73.7 45.704 C 74.29 46.324 75.06 46.744 75.9 46.904 L 99.4 40.104 C 100.675 40.005 101.943 39.838 103.2 39.604 L 84.4 47.104 L 87.3 46.804 L 105.6 39.104 L 106.3 39.104 L 94.5 45.704 L 100.1 44.504 L 108.6 38.504 L 113.2 37.204 L 118.6 35.304 L 125.8 36.704 L 132.7 33.904 L 121.6 34.104 L 121.7 34.104 L 138.6 31.104 C 140.5 30.204 142.2 29.204 143.7 28.304 L 125 32.404 L 126.2 31.704 L 150.3 22.604 Z " fill="rgb(122,56,76)"/><path d=" M 145.5 125.004 L 140.3 102.904 L 136.7 111.204 L 131.2 127.304 L 145.5 125.004 Z " fill="rgb(31,64,161)"/><path d=" M 68.3 84.103 L 143.4 94.303 C 149.8 97.303 151.8 98.503 154.9 106.203 L 157.2 111.903 C 159.4 113.703 159.6 114.003 159 116.603 L 142.8 127.303 L 151.7 157.703 L 83.2 166.003 L 68.7 134.003 L 46.6 120.703 C 46.105 120.411 45.692 119.998 45.4 119.503 C 44.5 117.603 44.7 115.803 48.1 114.203 C 50.2 107.003 50.1 105.703 51.8 100.103 C 55.5 87.603 58.4 83.903 68.3 84.103 Z " fill="rgb(35,71,161)"/><path d=" M 130.3 148.004 C 128.05 144.794 126.957 140.916 127.2 137.004 C 127.6 126.904 123.1 124.004 121.7 116.504 L 120.7 116.504 L 118.1 116.804 C 118.4 124.404 114.5 128.204 117.1 138.004 C 118.101 141.788 117.82 145.797 116.3 149.404 C 114.1 154.404 114.3 159.504 117.5 163.604 L 125.4 162.804 L 126.1 162.804 L 132.2 162.204 C 134.4 157.504 133.6 152.504 130.3 148.004 Z " fill="rgb(26,55,138)"/><path d=" M 144.1 131.604 L 120.6 124.404 L 124.4 145.104 L 150.7 154.204 L 144.1 131.604 Z " fill="rgb(26,55,138)"/><path d=" M 76.5 151.803 C 72.7 152.003 72.5 151.703 70.5 148.503 C 68.729 145.186 67.127 141.782 65.7 138.303 L 67.9 135.703 L 76.5 151.803 Z " fill="rgb(125,159,255)"/><path d=" M 123.5 142.704 L 98.3 136.204 L 96.9 142.704 L 102 147.304 L 107.2 163.104 L 102.4 163.604 L 80.4 167.904 L 79.8 171.104 L 78.2 168.904 C 77.743 168.278 77.426 167.561 77.271 166.802 C 77.116 166.042 77.126 165.259 77.3 164.504 L 78.4 158.604 L 76.5 151.804 L 75.6 151.804 C 73.6 151.604 73.6 151.004 72.1 148.404 C 69.638 144.136 67.498 139.691 65.7 135.104 L 68.7 134.004 L 75.6 119.104 C 104.3 129.004 114.3 133.304 126.5 139.004 C 138.7 144.704 139 144.704 141.2 146.504 C 143.4 148.304 142.2 147.404 123.5 142.704 Z " fill="rgb(26,55,138)"/><path d=" M 102 111.805 C 85.1 127.005 81.1 138.005 76.5 151.805 L 78.4 158.605 C 86.5 142.705 90 136.105 95.3 130.605 C 100.6 125.105 110.1 116.605 110.1 116.605 L 102 111.805 Z " fill="rgb(36,34,54)"/><path d=" M 78.1 88.604 L 67 94.804 L 78.1 108.704 L 89.1 99.804 L 78.1 88.604 Z " fill="rgb(42,82,194)"/><path d=" M 99.6 62.805 L 94.4 63.705 C 93.178 63.886 92.01 64.328 90.975 65.001 C 89.94 65.674 89.061 66.562 88.4 67.605 L 85.3 72.405 L 75.5 75.305 C 74.459 75.614 73.49 76.127 72.649 76.813 C 71.807 77.5 71.111 78.347 70.6 79.305 L 68.3 84.105 C 68.3 84.105 95.6 121.905 117.2 128.105 C 138.8 134.305 143.4 94.305 143.4 94.305 C 143.405 93.867 143.286 93.437 143.056 93.065 C 142.825 92.693 142.494 92.395 142.1 92.205 L 136.4 88.905 L 136.9 81.505 C 136.948 80.82 136.827 80.133 136.548 79.506 C 136.269 78.878 135.841 78.328 135.3 77.905 L 119.7 65.805 L 99.6 62.805 Z " fill="rgb(239,98,112)"/><path d=" M 83.1 73.005 C 84.7 69.205 85.4 64.705 95 62.805 L 102 61.805 L 101.4 67.505 L 88.1 76.305 L 83.1 73.005 Z " fill="rgb(255,112,126)"/><path d=" M 94.4 63.705 C 93.178 63.886 92.01 64.328 90.975 65.001 C 89.94 65.674 89.061 66.562 88.4 67.605 L 85.3 72.405 L 75.5 75.305 C 74.459 75.614 73.49 76.127 72.649 76.813 C 71.807 77.5 71.111 78.347 70.6 79.305 L 68.3 84.105 C 74.75 92.787 81.801 101.007 89.4 108.705 L 92.4 101.105 L 110.1 101.105 C 110.1 101.105 108 93.805 107.3 90.505 C 106.6 87.205 105 85.305 109.9 84.505 L 105.8 63.805 L 99.6 62.805 L 94.4 63.705 Z " fill="rgb(224,81,100)"/><path d=" M 95.4 73.503 C 90.6 69.903 90.9 70.203 93.6 68.503 C 95.2 67.417 97.069 66.795 99 66.703 L 95.4 73.503 Z " fill="rgb(189,60,83)"/><path d=" M 89.1 77.004 C 93.2 83.204 117.5 109.504 121.2 112.004 C 124.9 114.504 119.7 118.004 119.7 118.004 C 112.709 114.566 105.961 110.657 99.5 106.304 C 91.3 100.404 86.4 96.704 84.1 94.504 C 81.8 92.304 81.1 90.404 85.6 93.304 C 90.393 96.096 95.451 98.408 100.7 100.204 L 102 98.704 L 89.9 81.504 L 89.1 77.004 Z " fill="rgb(224,81,100)"/><path d=" M 129.1 74.704 C 134.4 79.304 137.1 78.104 124.5 95.204 L 121.5 93.304 L 112.8 83.404 L 123.9 69.504 L 129.1 74.704 Z " fill="rgb(199,65,83)"/><path d=" M 127.5 28.603 C 127.2 27.503 120 28.703 111.4 31.303 C 102.8 33.903 96.1 36.803 96.4 37.803 C 98.2 52.103 97.9 64.703 95.4 73.503 L 121.5 93.303 C 132.5 66.903 129.1 43.503 127.5 28.603 Z " fill="rgb(255,182,133)"/><path d=" M 107.5 69.005 C 111 73.005 117.5 72.005 120.2 69.305 C 123.7 72.705 125.7 72.205 128.1 69.205 C 130.5 66.205 117.5 63.305 117.5 63.305 L 107.5 69.005 Z " fill="rgb(254,155,119)"/><path d=" M 109.9 84.504 C 108.821 76.077 108.187 67.598 108 59.104 C 107.6 50.804 107.3 40.904 107.4 32.504 C 100.9 34.704 96.2 36.904 96.4 37.804 C 98.2 52.104 97.9 64.704 95.4 73.504 L 109.9 84.504 Z " fill="rgb(254,155,119)"/><g style="opacity:0.4;"><g opacity="0.4"><path d=" M 127.5 28.603 C 127.2 27.503 120 28.703 111.4 31.303 C 102.8 33.903 96.1 36.803 96.4 37.803 C 96.7 38.803 96.8 41.403 97 43.203 C 106.3 42.103 119.3 43.503 129.1 46.503 C 128.8 39.703 128 33.703 127.5 28.603 Z " fill="rgb(168,56,126)"/></g></g><path d=" M 107.9 71.305 L 105.1 66.905 L 107.9 57.305 C 108.153 60.628 109.528 63.766 111.8 66.205 C 112.9 67.205 112.4 67.405 111.8 69.505 C 111.2 71.605 109.1 75.805 109.3 79.405 C 109.5 83.005 107.9 71.305 107.9 71.305 Z " fill="rgb(254,155,119)"/><path d=" M 105.5 166.304 L 99.7 195.904 L 154.6 195.904 L 154.6 211.304 L 167.6 211.304 L 168.1 221.804 L 197.4 221.804 L 196.3 211.404 L 200.8 207.204 C 201.154 206.854 201.427 206.431 201.6 205.965 C 201.773 205.498 201.841 205 201.8 204.504 L 199.1 175.604 C 198.857 172.909 198.066 170.292 196.777 167.913 C 195.488 165.534 193.728 163.443 191.603 161.768 C 189.478 160.093 187.034 158.868 184.42 158.169 C 181.806 157.471 179.077 157.312 176.4 157.704 L 105.5 166.304 Z " fill="rgb(35,34,51)"/><path d=" M 183.9 271.305 L 183.1 272.005 C 182.666 272.353 182.38 272.854 182.3 273.405 L 182.1 274.805 C 182.016 275.51 182.194 276.222 182.6 276.805 C 184.5 279.405 186.6 280.005 189 280.805 C 191.755 281.436 194.324 282.703 196.5 284.505 C 200.172 287.23 204.541 288.86 209.1 289.205 C 214.2 289.605 216.2 287.305 216.1 285.405 C 216 283.505 213.4 281.705 213.4 281.705 L 183.9 271.305 Z " fill="rgb(79,36,49)"/><path d=" M 183.1 266.303 C 183.9 259.403 180.1 255.303 175.4 246.103 C 170.7 236.903 168.6 226.103 166.9 212.203 L 191.9 212.203 C 191.9 212.203 197.3 245.703 198.8 252.903 C 199.7 257.303 200.2 264.303 204.9 270.103 C 211.1 277.903 215.5 281.603 214.5 284.303 C 213.5 287.003 210 288.103 203 285.303 C 201.1 284.503 199 283.003 196.5 281.603 C 194 280.203 190.7 279.103 188.7 278.103 C 183.6 275.703 182.2 274.503 183.1 266.303 Z " fill="rgb(107,49,63)"/><path d=" M 202.9 281.303 C 199 277.303 195.7 274.403 195.1 272.103 C 194.5 269.803 194 266.103 193.3 262.803 C 192.6 259.503 181.6 229.703 178.6 213.103 L 175.9 212.203 L 166.9 212.203 C 168.6 226.103 170.7 236.903 175.4 246.103 C 180.1 255.303 183.9 259.403 183.1 266.303 C 182.3 273.203 183.6 275.703 188.7 278.103 C 190.7 279.103 193.3 279.803 196.5 281.603 C 199.7 283.403 201.1 284.503 203 285.303 C 207.1 286.903 209.9 287.203 211.8 286.703 C 208.466 285.594 205.424 283.749 202.9 281.303 Z " fill="rgb(89,37,52)"/><mask id="_mask_fCjVmHADl1btQxwZ9yBvFyKi3YG7bJP7" x="-200%" y="-200%" width="400%" height="400%"><rect x="-200%" y="-200%" width="400%" height="400%" style="fill:white;"/><path d=" M 174.6 213.104 C 175.1 226.904 179.3 239.904 182.3 245.604 C 185.3 251.304 187.9 257.404 188.7 269.504" fill="black" stroke="none"/></mask><path d=" M 174.6 213.104 C 175.1 226.904 179.3 239.904 182.3 245.604 C 185.3 251.304 187.9 257.404 188.7 269.504" fill="none" mask="url(#_mask_fCjVmHADl1btQxwZ9yBvFyKi3YG7bJP7)" vector-effect="non-scaling-stroke" stroke-width="4" stroke="rgb(79,36,49)" stroke-linejoin="miter" stroke-linecap="round" stroke-miterlimit="10"/><path d=" M 174.6 213.104 C 175.1 226.904 179.3 239.904 182.3 245.604 C 185.3 251.304 187.9 257.404 188.7 269.504" fill="none"/><path d=" M 201.2 263.304 C 200.71 262.077 200.341 260.804 200.1 259.504 C 199.625 259 199.051 258.598 198.415 258.323 C 197.779 258.048 197.093 257.906 196.4 257.904 C 193.7 258.104 191.7 260.104 190.9 263.404 C 190.1 266.704 188.8 269.404 187.4 269.904 C 186 270.404 185.1 269.804 183.5 268.704 C 183.423 268.626 183.328 268.568 183.224 268.533 C 183.12 268.498 183.009 268.488 182.9 268.504 L 182.9 270.804 C 183.997 271.558 185.274 272.007 186.6 272.104 L 188.1 271.904 C 190.3 271.104 191.8 268.504 192.9 263.904 C 193.5 261.504 194.8 260.104 196.5 260.004 C 198.2 259.904 200 261.204 201.2 263.304 Z " fill="rgb(79,36,49)"/><path d=" M 197.4 203.304 C 194.9 203.404 190.4 203.604 175 206.404 L 167.6 212.604 L 167.8 215.904 L 186.1 220.104 C 186.1 220.104 192.6 217.004 196.4 212.104 L 196.4 211.404 L 197.9 210.004 C 201.2 203.804 199.9 203.204 197.4 203.304 Z " fill="rgb(28,27,41)"/><path d=" M 168.1 221.803 L 197.4 221.803 L 196.3 211.403 L 196.1 208.703 L 185.2 209.403 C 180.5 209.803 160.6 210.103 160.6 210.103 L 161 211.303 L 167.6 211.303 L 168.1 221.803 Z " fill="rgb(40,38,59)"/><path d=" M 166.1 186.104 C 176.2 181.904 178.8 180.704 180.9 180.004 C 183 179.304 180.9 177.904 177.8 176.404 C 174.7 174.904 173.8 176.404 166.1 186.104 Z " fill="rgb(28,27,41)"/><path d=" M 132.1 133.604 C 129.865 130.387 128.773 126.514 129 122.604 C 129.4 112.504 124.9 109.604 123.5 102.104 L 122.5 102.104 L 119.9 102.304 C 120.2 110.004 116.3 113.804 118.9 123.604 C 119.901 127.354 119.619 131.332 118.1 134.904 C 115.9 140.004 116.1 145.104 119.3 149.204 L 119.9 149.204 C 124.66 149.68 129.467 149.135 134 147.604 C 136.2 143.004 135.4 138.104 132.1 133.604 Z " fill="rgb(184,197,255)"/><path d=" M 128 114.305 C 126.7 110.205 124.6 107.305 123.7 102.805 L 123.2 102.805 C 123.2 102.805 125.5 110.005 127.1 113.305 C 127.5 114.105 127.8 114.305 128 114.305 Z " fill="rgb(224,230,255)"/><path d=" M 120.9 102.305 L 119.9 102.305 C 120.2 110.005 116.3 113.805 118.9 123.605 C 119.205 124.853 119.406 126.124 119.5 127.405 L 128.2 120.905 C 125.278 114.908 122.837 108.689 120.9 102.305 Z " fill="rgb(156,168,245)"/><path d=" M 119.1 131.804 C 118.98 132.449 118.813 133.084 118.6 133.704 C 120.691 133.929 122.743 134.433 124.7 135.204 C 124.7 135.204 130.2 142.304 134.4 146.604 C 136 142.204 135.1 137.704 132.1 133.604 C 131.402 132.525 130.8 131.387 130.3 130.204 L 121.2 129.504 L 119.1 131.804 Z " fill="rgb(156,168,245)"/><path d=" M 163 126.504 L 159 116.604 L 145.5 125.004 L 126.2 118.004 L 126.2 131.204 L 132.1 133.604 C 149.5 140.804 152.8 145.104 160.3 144.404 C 167.8 143.704 166.3 134.604 163 126.504 Z " fill="rgb(254,167,127)"/><path d=" M 152.9 120.404 L 157 129.504 L 145.8 125.804 L 145.5 125.004 L 152.9 120.404 Z " fill="rgb(250,142,112)"/><path d=" M 161.4 272.504 L 160.6 273.204 C 160.393 273.354 160.223 273.549 160.102 273.774 C 159.981 273.999 159.912 274.249 159.9 274.504 L 159.6 276.004 C 159.516 276.709 159.694 277.421 160.1 278.004 C 162 280.604 164.2 281.204 166.5 281.904 C 169.267 282.637 171.854 283.93 174.1 285.704 C 177.753 288.465 182.132 290.098 186.7 290.404 C 191.7 290.804 193.7 288.504 193.7 286.504 C 193.7 284.504 190.9 282.904 190.9 282.904 L 161.4 272.504 Z " fill="rgb(79,36,49)"/><path d=" M 160.6 267.505 C 161.4 260.605 157.6 256.505 152.9 247.305 C 148.2 238.105 146.1 227.205 144.4 213.305 L 169.4 213.305 C 169.4 213.305 174.9 246.905 176.4 254.105 C 177.3 258.505 177.8 265.505 182.4 271.305 C 188.6 279.105 193 282.805 192 285.405 C 191 288.005 187.5 289.305 180.5 286.505 C 178.301 285.39 176.164 284.154 174.1 282.805 C 170.8 280.905 168.2 280.305 166.2 279.305 C 161.2 276.905 159.7 275.705 160.6 267.505 Z " fill="rgb(107,49,63)"/><path d=" M 180.4 282.505 C 176.5 278.505 173.2 275.605 172.7 273.305 C 172.2 271.005 171.5 267.305 170.8 263.905 C 170.1 260.505 159.1 230.805 156.1 214.205 L 153.5 213.305 L 144.4 213.305 C 146.1 227.205 148.2 238.105 152.9 247.305 C 157.6 256.505 161.4 260.605 160.6 267.505 C 159.8 274.405 161.2 276.905 166.2 279.305 C 168.2 280.305 170.8 280.905 174.1 282.805 C 176.164 284.154 178.301 285.39 180.5 286.505 C 184.6 288.105 187.5 288.405 189.4 287.805 C 186.032 286.755 182.952 284.941 180.4 282.505 Z " fill="rgb(97,41,54)"/><mask id="_mask_uKnsvQzVo9F2iTxhGNMrl6kbk5y8XatU" x="-200%" y="-200%" width="400%" height="400%"><rect x="-200%" y="-200%" width="400%" height="400%" style="fill:white;"/><path d=" M 152.1 214.203 C 152.6 228.103 156.8 241.103 159.8 246.703 C 162.8 252.303 165.4 258.603 166.2 270.703" fill="black" stroke="none"/></mask><path d=" M 152.1 214.203 C 152.6 228.103 156.8 241.103 159.8 246.703 C 162.8 252.303 165.4 258.603 166.2 270.703" fill="none" mask="url(#_mask_uKnsvQzVo9F2iTxhGNMrl6kbk5y8XatU)" vector-effect="non-scaling-stroke" stroke-width="4" stroke="rgb(79,36,49)" stroke-linejoin="miter" stroke-linecap="round" stroke-miterlimit="10"/><path d=" M 152.1 214.203 C 152.6 228.103 156.8 241.103 159.8 246.703 C 162.8 252.303 165.4 258.603 166.2 270.703" fill="none"/><path d=" M 80.4 167.904 L 75 195.904 L 129.8 195.904 L 131.7 205.604 C 131.928 206.685 132.465 207.676 133.247 208.457 C 134.028 209.238 135.019 209.776 136.1 210.004 L 141 211.004 L 143.4 221.804 L 173 221.804 L 171.8 213.504 L 175.5 212.204 C 176.126 212.018 176.663 211.612 177.013 211.06 C 177.362 210.509 177.5 209.849 177.4 209.204 L 174.4 175.604 C 174.157 172.909 173.366 170.292 172.077 167.913 C 170.788 165.534 169.027 163.443 166.903 161.768 C 164.778 160.093 162.334 158.868 159.72 158.169 C 157.106 157.471 154.377 157.312 151.7 157.704 C 151.7 157.704 103.7 163.304 94.1 164.704 C 84.5 166.104 80.4 167.904 80.4 167.904 Z " fill="rgb(28,27,41)"/><path d=" M 85 175.004 C 93.054 170.295 101.443 166.184 110.1 162.704 C 107.5 161.604 105.7 161.904 98 164.204 L 79.3 173.704 L 85 175.004 Z " fill="rgb(115,53,68)"/><path d=" M 145.5 125.004 L 160 130.304 C 160.041 130.331 160.075 130.369 160.098 130.412 C 160.122 130.456 160.134 130.504 160.134 130.554 C 160.134 130.604 160.122 130.652 160.098 130.696 C 160.075 130.739 160.041 130.777 160 130.804 L 126.3 119.804 L 126.3 118.004 L 145.5 125.004 Z " fill="rgb(255,208,150)"/><path d=" M 23.8 188.504 L 6.3 192.704 L 4 195.904 L 26.2 195.904 L 23.8 188.504 Z " fill="rgb(247,220,158)"/><path d=" M 88.2 173.304 L 74.7 173.904 C 73.648 173.942 72.638 174.325 71.825 174.994 C 71.012 175.662 70.441 176.579 70.2 177.604 L 65.7 195.904 L 90.9 195.904 L 91.8 176.904 C 91.814 176.428 91.73 175.953 91.554 175.51 C 91.378 175.067 91.114 174.665 90.777 174.328 C 90.439 173.991 90.037 173.726 89.594 173.55 C 89.151 173.374 88.677 173.29 88.2 173.304 Z " fill="rgb(79,36,49)"/><path d=" M 82.7 195.905 C 83.1 192.505 84 184.905 84.5 180.505 C 85 176.105 85.4 174.205 87 173.305 L 85.6 173.305 L 74.7 173.805 C 73.648 173.843 72.638 174.225 71.825 174.894 C 71.012 175.563 70.441 176.48 70.2 177.505 L 65.7 195.805 L 82.7 195.905 Z " fill="rgb(64,29,43)"/><path d=" M 117.9 6.904 L 122.8 7.804 L 121.4 10.104 L 117.9 6.904 Z " fill="rgb(255,205,143)"/><path d=" M 127.357 56.647 C 127.561 55.618 127.155 54.67 126.451 54.531 C 125.747 54.391 125.01 55.113 124.807 56.142 C 124.603 57.171 125.008 58.119 125.713 58.258 C 126.417 58.398 127.153 57.676 127.357 56.647 Z " fill="rgb(84,50,71)"/><path d=" M 115.182 57.563 C 115.953 57.132 116.12 55.962 115.554 54.95 C 114.988 53.937 113.904 53.466 113.133 53.897 C 112.362 54.328 112.195 55.499 112.761 56.511 C 113.327 57.523 114.411 57.995 115.182 57.563 Z " fill="rgb(84,50,71)"/><path d=" M 104.7 2.103 C 104.7 2.103 107.2 1.903 108.3 2.803 C 107.1 4.203 104.7 2.103 104.7 2.103 Z " fill="rgb(255,208,143)"/><path d=" M 112.8 2.104 C 118.1 0.804 118.6 3.604 118.6 3.604 L 112.8 2.104 Z " fill="rgb(255,253,196)"/><path d=" M 73.4 35.203 C 73.6 37.103 78 38.403 78 38.403 L 76.2 39.703 C 71.7 39.603 70.5 37.403 70.5 37.403 C 71.335 36.511 72.316 35.767 73.4 35.203 Z " fill="rgb(212,101,91)"/><path d=" M 61.9 43.604 C 62.6 45.704 71.9 44.504 71.9 44.504 L 72.2 45.604 C 65.3 46.804 62.4 46.204 62.4 46.204 C 61.993 45.401 61.82 44.5 61.9 43.604 Z " fill="rgb(212,101,91)"/><path d=" M 96 23.704 C 96.6 26.204 99.7 27.904 99.7 27.904 L 104.7 26.404 C 103.764 24.929 103.088 23.306 102.7 21.604 C 102.7 21.604 99.2 22.504 96 23.704 Z " fill="rgb(220,115,99)"/><path d=" M 136.7 84.904 C 136.7 84.904 136.6 86.604 136.4 88.904 C 136.003 92.278 135.368 95.62 134.5 98.904 C 133.8 101.904 133.8 101.804 132.8 101.104 L 129.3 98.604 C 131.3 95.704 134.9 90.204 136.7 84.904 Z " fill="rgb(209,70,88)"/><path d=" M 101.7 101.104 L 100.7 100.204 C 94 94.404 82.3 82.404 76.8 74.904 L 85.1 72.404 L 85.3 72.404 C 90.8 82.604 100.7 95.804 105 101.104 L 105.8 102.104 C 109.4 106.304 108 106.404 101.7 101.104 Z " fill="rgb(204,67,85)"/><path d=" M 90.4 72.404 L 103.3 84.904 L 105.8 95.804 L 91.6 77.804 L 90.4 72.404 Z " fill="rgb(230,85,104)"/><path d=" M 122.3 91.303 L 95.6 72.603 L 95.2 72.203 C 94.4 71.503 93.8 71.603 95.4 73.503 L 121.5 93.303 C 121.8 92.603 122 91.903 122.3 91.303 Z " fill="rgb(189,60,83)"/><path d=" M 73.7 25.305 C 76.666 22.532 79.997 20.177 83.6 18.305 C 78.6 19.405 75 21.005 73.7 25.305 Z " fill="rgb(235,147,99)"/><line x1="128.4" y1="3.604" x2="137" y2="5.504"/><path d=" M 140.5 120.505 C 145.2 114.605 148.9 110.905 150.4 110.005 C 151.9 109.105 151.7 109.505 149.4 112.705 C 147.1 115.905 143 122.505 143 122.505 L 140.5 120.505 Z " fill="rgb(26,55,138)"/><path d=" M 144.1 102.105 C 144.1 102.105 144 110.405 144.1 111.405 C 144.2 112.405 144.5 111.305 145.2 109.005 C 145.9 106.705 146.5 104.905 146.6 104.305 C 146.7 103.705 146.9 103.505 145.5 102.205 C 144.1 100.905 144.1 100.905 144.1 102.105 Z " fill="rgb(42,82,194)"/><path d=" M 161.4 142.204 C 158.79 142.052 156.239 141.372 153.9 140.204 C 152.6 139.604 153.4 141.104 155.7 142.504 C 158 143.904 163.2 142.404 161.4 142.204 Z " fill="rgb(250,142,112)"/><path d=" M 116.4 132.604 L 123.1 131.804 C 124.588 133.096 126.439 133.899 128.4 134.104 L 137.9 140.404 L 141.8 142.704 C 141.8 142.704 147.8 138.304 141.8 120.704 C 141.3 119.004 141 118.604 137.9 119.304 L 132.7 117.504 L 130.1 113.804 C 129.738 113.288 129.259 112.866 128.703 112.57 C 128.147 112.275 127.529 112.115 126.9 112.104 L 115.4 112.104 C 115.002 112.104 114.62 112.262 114.339 112.543 C 114.058 112.824 113.9 113.206 113.9 113.604 C 113.871 113.986 113.99 114.365 114.231 114.662 C 114.473 114.96 114.82 115.154 115.2 115.204 L 124.6 116.904 L 117.7 120.304 C 117.151 120.592 116.71 121.049 116.44 121.607 C 116.17 122.165 116.086 122.794 116.2 123.404 C 116.362 124.094 116.668 124.741 117.1 125.304 C 115.5 126.804 116.6 129.004 116.6 129.004 C 114.7 129.604 114 130.004 113.8 131.604 C 113.6 133.204 114.7 132.904 116.4 132.604 Z " fill="rgb(89,41,56)"/><path d=" M 139.2 137.204 L 128.4 130.804 C 127.399 130.26 126.431 129.659 125.5 129.004 C 124 127.904 124.2 126.804 124.9 126.604 C 125.128 126.536 125.336 126.415 125.508 126.25 C 125.68 126.086 125.811 125.883 125.889 125.659 C 125.967 125.434 125.991 125.194 125.958 124.958 C 125.925 124.723 125.837 124.498 125.7 124.304 C 125.1 122.804 124.8 122.204 125.6 121.404 C 126.4 120.604 126.9 120.304 126.5 119.804 C 126.1 119.304 125.2 118.204 125.9 117.304 C 126.6 116.404 127.4 116.704 126.9 115.204 C 126.4 113.704 125.9 112.104 126.9 112.104 L 115.4 112.104 C 115.002 112.104 114.62 112.262 114.339 112.543 C 114.058 112.824 113.9 113.206 113.9 113.604 C 113.871 113.986 113.99 114.365 114.231 114.662 C 114.473 114.96 114.82 115.154 115.2 115.204 L 124.6 116.904 L 117.7 120.304 C 117.151 120.592 116.71 121.049 116.44 121.607 C 116.17 122.165 116.086 122.794 116.2 123.404 C 116.362 124.094 116.668 124.741 117.1 125.304 C 115.5 126.804 116.6 129.004 116.6 129.004 C 114.7 129.604 114 130.004 113.8 131.604 C 113.6 133.204 114.7 132.904 116.4 132.604 L 123.1 131.804 C 124.588 133.096 126.439 133.899 128.4 134.104 L 137.9 140.404 L 139.2 141.204 L 139.2 137.204 Z " fill="rgb(79,36,49)"/><path d=" M 137.9 140.405 L 141.8 142.705 C 141.8 142.705 147.8 138.305 141.8 120.705 C 141.3 119.005 141 118.605 137.9 119.305 L 139.2 119.805 C 140.5 124.205 141.5 132.805 137.9 140.405 Z " fill="rgb(107,49,63)"/><path d=" M 129.1 112.805 C 130.3 119.705 128.2 127.205 128.2 127.205 L 133.3 129.605 C 134 126.905 133.9 123.605 132.7 117.505 L 130.1 113.805 C 129.846 113.401 129.504 113.059 129.1 112.805 Z " fill="rgb(115,53,68)"/><path d=" M 117.1 125.305 C 121.8 123.005 125.7 120.905 125.7 120.905 L 125.5 120.305 L 116.7 124.805 L 117.1 125.305 Z " fill="rgb(64,29,43)"/><path d=" M 116.6 129.004 L 124.9 126.604 L 124.4 125.904 L 116.4 128.604 L 116.6 129.004 Z " fill="rgb(64,29,43)"/><path d=" M 124.6 116.903 L 125.9 116.303 L 125.8 115.203 L 123.5 116.703 L 124.6 116.903 Z " fill="rgb(64,29,43)"/><path d=" M 139.2 137.203 C 138.828 138.294 138.394 139.362 137.9 140.403 L 141.8 142.703 C 142.668 141.931 143.294 140.924 143.6 139.803 L 139.2 137.203 Z " fill="rgb(89,41,56)"/><path d=" M 68.7 134.004 C 67.681 138.023 66.134 141.89 64.1 145.504 C 61.1 150.304 54.9 159.804 54.9 159.804 C 54.9 159.804 46.4 178.304 37.8 187.804 L 24 184.604 C 24 184.604 33.3 158.204 36.5 150.604 C 38.9 144.904 44.5 128.704 47.2 121.004 C 57.9 125.404 68.7 134.004 68.7 134.004 Z " fill="rgb(214,130,114)"/><path d=" M 46.1 185.103 L 43.2 187.003 L 36.4 195.903 L 0 195.903 L 1.1 194.303 C 2.001 193.084 3.259 192.175 4.7 191.703 L 17 187.903 L 25.6 168.403 C 25.698 168.264 25.839 168.16 26.001 168.106 C 26.163 168.052 26.338 168.051 26.5 168.103 C 34.5 173.003 43 180.103 46.3 183.903 C 46.374 183.992 46.429 184.096 46.459 184.207 C 46.49 184.319 46.496 184.435 46.477 184.549 C 46.458 184.664 46.414 184.772 46.349 184.868 C 46.284 184.963 46.199 185.044 46.1 185.103 Z " fill="rgb(79,36,49)"/><path d=" M 49.8 147.404 C 52.3 155.104 52.8 157.304 54.2 155.504 C 55.33 154.151 56.303 152.675 57.1 151.104 C 57.3 150.704 57.8 149.704 54.1 147.404 C 50.4 145.104 48.5 143.504 49.8 147.404 Z " fill="rgb(212,101,91)"/><path d=" M 46.3 183.903 C 43 180.103 34.5 173.003 26.5 168.103 C 26.338 168.051 26.163 168.052 26.001 168.106 C 25.839 168.16 25.698 168.264 25.6 168.403 L 24.5 171.103 C 37.2 180.403 43.2 187.003 43.2 187.003 L 46.1 185.103 C 46.199 185.044 46.284 184.963 46.349 184.868 C 46.414 184.772 46.458 184.664 46.477 184.549 C 46.496 184.435 46.49 184.319 46.459 184.207 C 46.429 184.096 46.374 183.992 46.3 183.903 Z " fill="rgb(87,40,54)"/><path d=" M 28.2 192.205 C 24.1 193.605 20 195.205 13.7 195.905 L 36.4 195.905 L 37.6 194.305 C 38.1 189.105 32.4 190.805 28.2 192.205 Z " fill="rgb(66,30,41)"/><path d=" M 88.2 173.305 C 84.6 173.505 83.9 174.605 83.3 179.905 C 82.7 185.205 82.4 186.505 82.2 187.705 C 82.176 187.873 82.092 188.026 81.963 188.136 C 81.834 188.247 81.67 188.307 81.5 188.305 L 67 188.305 C 66.8 188.305 66.7 188.105 66.7 187.905 L 69.3 177.905 C 69.573 176.733 70.236 175.688 71.181 174.943 C 72.126 174.198 73.297 173.796 74.5 173.805 L 88.2 173.305 Z " fill="rgb(89,41,56)"/><path d=" M 72.2 185.004 C 72.15 185.414 72.05 185.818 71.9 186.204 C 71.9 186.257 71.921 186.308 71.959 186.345 C 71.996 186.383 72.047 186.404 72.1 186.404 L 76.2 186.404 C 76.344 186.406 76.483 186.356 76.593 186.265 C 76.703 186.173 76.776 186.045 76.8 185.904 L 77.1 184.804 C 77.1 184.704 77.1 184.604 77 184.604 L 72.8 184.604 C 72.673 184.61 72.551 184.65 72.445 184.72 C 72.339 184.791 72.255 184.889 72.2 185.004 Z " fill="rgb(115,53,68)"/><path d=" M 187.6 176.004 C 190.208 176.542 192.78 177.244 195.3 178.104 C 196.5 178.604 196.6 178.704 194.5 181.104 C 192.4 183.504 192.1 184.504 190 181.204 C 187.9 177.904 186.2 175.604 187.6 176.004 Z " fill="rgb(28,27,41)"/><path d=" M 141 211.004 L 160.5 214.804 C 163.6 215.404 164.1 215.504 171.8 213.504 L 173 221.804 L 143.4 221.804 L 141 211.004 Z " fill="rgb(35,33,51)"/><path d=" M 129.8 195.904 C 139.2 190.304 141.6 188.704 143.6 187.804 C 145.6 186.904 143.3 185.604 140.1 184.604 C 136.9 183.604 136.1 185.104 129.8 195.904 Z " fill="rgb(23,22,33)"/><path d=" M 147.4 200.603 C 156.2 202.603 163.3 204.203 166.9 204.803 C 170.5 205.403 169.3 203.903 164.7 200.303 C 161.542 197.698 158.2 195.325 154.7 193.203 C 152.5 192.003 151.9 192.803 148 196.103 C 144.1 199.403 143.9 199.803 147.4 200.603 Z " fill="rgb(23,22,33)"/><path d=" M 67.3 107.705 C 75.8 117.405 77.3 121.205 77.3 121.205 L 75.5 124.405 C 75.5 124.405 74.8 123.005 71.1 116.905 C 67.4 110.805 62.6 102.405 67.3 107.705 Z " fill="rgb(26,55,138)"/><path d=" M 123.557 101.616 L 119.586 102.097 C 119.092 102.157 118.741 102.603 118.8 103.094 C 118.859 103.584 119.307 103.934 119.801 103.874 L 123.772 103.394 C 124.265 103.334 124.617 102.888 124.558 102.397 C 124.499 101.906 124.05 101.557 123.557 101.616 Z " fill="rgb(184,197,255)"/><path d=" M 178.7 264.404 C 178.242 263.199 177.874 261.963 177.6 260.704 C 177.124 260.2 176.551 259.798 175.915 259.523 C 175.278 259.247 174.593 259.105 173.9 259.104 C 171.2 259.304 169.2 261.304 168.4 264.604 C 167.6 267.904 166.3 270.504 164.9 271.104 C 163.5 271.704 162.6 271.004 161 269.904 C 160.9 269.704 160.7 269.704 160.5 269.704 C 160.419 270.467 160.385 271.236 160.4 272.004 C 161.496 272.757 162.773 273.206 164.1 273.304 C 164.615 273.309 165.126 273.207 165.6 273.004 C 167.8 272.204 169.3 269.704 170.5 265.104 C 171 262.704 172.3 261.304 174 261.204 C 175.7 261.104 177.5 262.304 178.7 264.404 Z " fill="rgb(79,36,49)"/><path d=" M 120.7 102.205 L 123.6 101.805 L 123.8 102.605 L 119.9 102.605 L 120.7 102.205 Z " fill="rgb(224,230,255)"/><path d=" M 116.8 69.203 C 119.8 69.203 122.6 69.103 123.5 69.903 C 124.4 70.703 123 72.403 120.8 74.003 C 118.6 75.603 119.4 74.803 117.1 72.803 C 114.8 70.803 114.5 69.203 116.8 69.203 Z " fill="rgb(199,65,83)"/><path d=" M 118 69.305 L 115.5 69.705 C 115.2 70.505 115.9 71.805 117.1 72.805 C 118.3 73.805 119.8 74.705 120.8 74.005 L 121.8 73.205 C 121.4 72.305 120.2 70.005 118 69.305 Z " fill="rgb(168,44,60)"/><path d=" M 122.5 69.504 C 120.613 69.229 118.705 69.129 116.8 69.204 C 115.5 69.204 115.3 69.804 115.5 70.704 L 122.3 70.704 C 122.7 70.804 122.6 70.004 122.5 69.504 Z " fill="rgb(255,255,255)"/><path d=" M 133.2 65.303 C 133.3 65.203 133.3 65.003 133.4 64.903 C 133.704 64.042 133.732 63.108 133.482 62.23 C 133.231 61.352 132.713 60.574 132 60.003 C 132.109 60.271 132.156 60.561 132.136 60.85 C 132.117 61.139 132.031 61.42 131.887 61.67 C 131.742 61.921 131.542 62.136 131.301 62.297 C 131.061 62.459 130.787 62.564 130.5 62.603 C 129.517 62.647 128.534 62.512 127.6 62.203 C 126.388 61.721 125.081 61.524 123.78 61.628 C 122.479 61.732 121.22 62.134 120.1 62.803 C 116.1 60.703 113.4 62.503 109.8 62.503 C 108.818 62.525 107.839 62.39 106.9 62.103 C 103.8 61.203 103.9 59.803 104.6 58.203 C 100.2 59.203 100.4 63.903 102.4 65.903 C 103.5 67.303 105.6 67.903 108.4 67.303 C 112.8 71.003 114.9 71.303 120.1 67.903 C 124.3 71.503 128.3 71.103 130.7 66.703 C 131.2 66.697 131.691 66.565 132.128 66.321 C 132.565 66.076 132.933 65.727 133.2 65.303 Z " fill="rgb(107,49,67)"/><path d=" M 120.1 67.904 C 124.3 71.504 128.3 71.104 130.7 66.704 C 131.2 66.698 131.691 66.566 132.128 66.322 C 132.564 66.077 132.933 65.727 133.2 65.304 C 133.3 65.204 133.3 65.004 133.4 64.904 C 133.522 64.447 133.59 63.977 133.6 63.504 C 133.33 64.197 132.812 64.765 132.147 65.097 C 131.481 65.43 130.716 65.504 130 65.304 C 127 67.804 123.8 67.004 120.8 64.704 C 120.8 64.704 114.5 68.104 109.9 64.404 C 104.8 65.704 101.1 63.304 101.7 60.004 C 101.154 60.928 100.927 62.006 101.054 63.072 C 101.18 64.138 101.653 65.133 102.4 65.904 C 103.5 67.304 105.6 67.904 108.4 67.304 C 112.8 71.004 114.9 71.304 120.1 67.904 Z " fill="rgb(94,39,55)"/></g></g></svg>