<?xml version="1.0" encoding="UTF-8" standalone="no"?><!-- Generator: Gravit.io --><svg xmlns="http://www.w3.org/2000/svg" xmlns:xlink="http://www.w3.org/1999/xlink" style="isolation:isolate" viewBox="0 0 84.1 86.8" width="84.1pt" height="86.8pt"><defs><clipPath id="_clipPath_rgtxkEI8zLRzSBZXGsloMaifDKbe8gA9"><rect width="84.1" height="86.8"/></clipPath></defs><g clip-path="url(#_clipPath_rgtxkEI8zLRzSBZXGsloMaifDKbe8gA9)"><rect width="84.1" height="86.8" style="fill:rgb(0,0,0)" fill-opacity="0"/><g><path d=" M 12.5 45.798 L 0 54.298 L 0.1 54.698 L 6.9 75.898 L 33.6 86.798 L 56 83.598 L 84.1 62.398 L 84.1 49.498 L 12.5 45.798 Z " fill="rgb(56,81,153)"/><path d=" M 6.9 75.9 L 33.6 86.8 L 56 83.6 L 67.5 74.9 L 42 62 L 6.9 75.9 Z " fill="rgb(53,77,145)"/><path d=" M 1.8 59.998 L 28.7 48.598 L 12.5 45.798 L 0 54.298 L 0.1 54.698 L 1.8 59.998 Z " fill="rgb(60,86,163)"/><path d=" M 33.6 47.099 L 33.6 26.299 L 43.4 26.299 L 43.4 6.1 L 51.3 6.1 L 51.3 15.8 L 62.1 15.8 L 62.1 35.399 L 66.5 30.899 L 72.2 37.499 L 72.2 48.899 L 33.6 47.099 Z " fill="rgb(123,162,255)"/><path d=" M 48.2 40.099 C 48.89 40.099 49.55 40.373 50.04 40.861 C 50.53 41.348 50.8 42.01 50.8 42.699 L 50.8 46.699 L 45.7 46.699 L 45.7 42.699 C 45.7 42.027 45.96 41.38 46.43 40.895 C 46.89 40.41 47.53 40.125 48.2 40.099 Z " fill="rgb(65,123,212)"/><path d=" M 11.7 46.398 L 84.1 55.698 L 84.1 49.498 L 78.8 47.398 L 15.6 44.298 L 11.7 46.398 Z " fill="rgb(51,155,190)"/><path d=" M 66.5 30.898 L 60.4 37.198 L 72.2 37.498 L 66.5 30.898 Z " fill="rgb(85,142,230)"/><path d=" M 46.7 25.199 L 43.6 28.899 L 50 28.899 L 46.7 25.199 Z " fill="rgb(85,142,230)"/><line x1="52.1" y1="15.8" x2="60.9" y2="15.8"/><line x1="44.1" y1="6.098" x2="50.6" y2="6.098"/><path d=" M 47.3 2.4 C 47.96 2.4 48.5 1.863 48.5 1.2 C 48.5 0.537 47.96 0 47.3 0 C 46.64 0 46.1 0.537 46.1 1.2 C 46.1 1.863 46.64 2.4 47.3 2.4 Z " fill="rgb(85,142,230)"/><path d=" M 60 18.799 L 58.9 18.799 L 58.9 20.248 L 60 20.248 L 60 18.799 Z " fill="rgb(85,142,230)"/><path d=" M 54.3 18.799 L 53.2 18.799 L 53.2 20.248 L 54.3 20.248 L 54.3 18.799 Z " fill="rgb(85,142,230)"/><path d=" M 57.9 24.199 L 56.8 24.199 L 56.8 25.649 L 57.9 25.649 L 57.9 24.199 Z " fill="rgb(85,142,230)"/><path d=" M 55 28.599 L 53.9 28.599 L 53.9 30.049 L 55 30.049 L 55 28.599 Z " fill="rgb(85,142,230)"/><path d=" M 62.8 39.798 L 61.7 39.798 L 61.7 41.248 L 62.8 41.248 L 62.8 39.798 Z " fill="rgb(85,142,230)"/><path d=" M 50.1 9.398 L 49 9.398 L 49 10.848 L 50.1 10.848 L 50.1 9.398 Z " fill="rgb(85,142,230)"/><path d=" M 47.4 13 L 46.3 13 L 46.3 14.45 L 47.4 14.45 L 47.4 13 Z " fill="rgb(85,142,230)"/><path d=" M 37.6 31.398 L 36.5 31.398 L 36.5 32.848 L 37.6 32.848 L 37.6 31.398 Z " fill="rgb(85,142,230)"/><path d=" M 43.6 35.099 L 42.5 35.099 L 42.5 36.549 L 43.6 36.549 L 43.6 35.099 Z " fill="rgb(85,142,230)"/><path d=" M 36.3 24.599 L 34.7 26.299 L 43.4 26.299 L 43.4 24.599 L 36.3 24.599 Z " fill="rgb(85,142,230)"/></g></g></svg>