<?xml version="1.0" encoding="UTF-8" standalone="no"?><!-- Generator: Gravit.io --><svg xmlns="http://www.w3.org/2000/svg" xmlns:xlink="http://www.w3.org/1999/xlink" style="isolation:isolate" viewBox="0 0 84.1 58.883" width="84.1pt" height="58.883pt"><defs><clipPath id="_clipPath_eGgk3vuESqzfvXy2DsV1zTAgKZQpvhd9"><rect width="84.1" height="58.883"/></clipPath></defs><g clip-path="url(#_clipPath_eGgk3vuESqzfvXy2DsV1zTAgKZQpvhd9)"><rect width="84.1" height="58.883" style="fill:rgb(0,0,0)" fill-opacity="0"/><g><path d=" M 64.429 23.83 C 68.285 19.887 71.232 21.014 72.055 26.083 C 74.091 25.737 75.824 25.737 75.781 31.153 L 63.086 26.603 L 64.429 23.83 Z " fill="rgb(59,168,204)"/><path d=" M 28.943 24.308 C 29.073 19.151 31.283 17.332 33.579 18.068 C 33.796 13.259 38.129 11.309 39.385 16.552 C 40.642 21.795 40.382 24.351 40.382 24.351 L 28.943 24.308 Z " fill="rgb(59,168,204)"/><path d=" M 36.916 24.177 L 38.995 9.142 L 54.334 9.142 L 54.334 25.087 L 36.916 24.177 Z " fill="rgb(123,162,255)"/><path d=" M 51.127 15.251 L 47.834 15.251 L 47.834 23.284 L 51.127 23.284 L 51.127 15.251 Z " fill="rgb(107,151,255)"/><path d=" M 51.561 17.115 L 62.566 17.115 L 65.642 20.711 L 65.642 28.077 L 51.561 23.267 L 51.561 17.115 Z " fill="rgb(123,162,255)"/><g opacity="0.8"><path d=" M 19.671 25.087 L 55.07 25.087 L 79.507 37.176 L 73.441 50.911 L 57.02 58.883 L 22.661 44.151 L 18.631 34.013 L 19.671 25.087 Z " fill="rgb(71,88,166)"/></g><g opacity="0.8"><path d=" M 18.631 34.013 L 43.198 33.146 L 54.334 29.03 L 60.573 46.751 L 73.441 50.911 L 57.02 58.883 L 22.661 44.151 L 18.631 34.013 Z " fill="rgb(63,80,161)"/></g><path d=" M 19.671 25.087 L 21.967 23.657 L 56.457 22.617 L 78.424 30.676 L 79.507 37.175 L 55.07 25.087 L 19.671 25.087 Z " fill="rgb(51,155,190)"/><path d=" M 40.425 9.142 C 40.425 9.142 39.905 5.633 44.065 5.156 L 46.838 0 L 49.481 5.026 C 53.467 5.026 53.554 9.142 53.554 9.142 L 40.425 9.142 Z " fill="rgb(107,127,255)"/><path d=" M 55.113 17.115 L 58.58 13.388 L 61.483 17.115 L 55.113 17.115 Z " fill="rgb(107,127,255)"/><path d=" M 43.588 11.525 L 42.418 11.525 L 42.418 13.41 L 43.588 13.41 L 43.588 11.525 Z " fill="rgb(107,151,255)"/><path d=" M 49.004 11.525 L 47.834 11.525 L 47.834 13.41 L 49.004 13.41 L 49.004 11.525 Z " fill="rgb(107,151,255)"/><path d=" M 45.191 17.115 L 44.021 17.115 L 44.021 18.999 L 45.191 18.999 L 45.191 17.115 Z " fill="rgb(107,151,255)"/><path d=" M 84.1 48.615 L 0 48.615 C 18.198 29.507 36.829 37.913 42.722 44.715 C 56.5 41.985 73.831 43.199 84.1 48.615 Z " fill="rgb(73,118,242)"/></g></g></svg>