<?xml version="1.0" encoding="UTF-8" standalone="no"?><!-- Generator: Gravit.io --><svg xmlns="http://www.w3.org/2000/svg" xmlns:xlink="http://www.w3.org/1999/xlink" style="isolation:isolate" viewBox="0 0 18 18" width="18pt" height="18pt"><defs><clipPath id="_clipPath_5eUEvPxKVI5FITnDtKFh4flAgBn3gcvz"><rect width="18" height="18"/></clipPath></defs><g clip-path="url(#_clipPath_5eUEvPxKVI5FITnDtKFh4flAgBn3gcvz)"><rect width="18" height="18" style="fill:rgb(0,0,0)" fill-opacity="0"/><path d=" M 1 8.879 L 1 2.5 C 1 1.672 1.672 1 2.5 1 L 8.879 1 C 9.277 1 9.658 1.158 9.939 1.439 L 16.561 8.061 C 17.146 8.646 17.146 9.596 16.561 10.182 L 10.182 16.561 C 9.596 17.146 8.646 17.146 8.061 16.561 L 1.439 9.939 C 1.158 9.658 1 9.277 1 8.879 Z  M 4.5 3 C 3.672 3 3 3.672 3 4.5 C 3 5.328 3.672 6 4.5 6 C 5.328 6 6 5.328 6 4.5 C 6 3.672 5.328 3 4.5 3 Z " fill="rgb(255,103,179)"/></g></svg>