<?xml version="1.0" encoding="UTF-8" standalone="no"?><!-- Generator: Gravit.io --><svg xmlns="http://www.w3.org/2000/svg" xmlns:xlink="http://www.w3.org/1999/xlink" style="isolation:isolate" viewBox="0 0 18 18" width="18pt" height="18pt"><defs><clipPath id="_clipPath_4RED6GPZgNmU4PibAjZ8IN8RC323c1pi"><rect width="18" height="18"/></clipPath></defs><g clip-path="url(#_clipPath_4RED6GPZgNmU4PibAjZ8IN8RC323c1pi)"><rect width="18" height="18" style="fill:rgb(0,0,0)" fill-opacity="0"/><path d=" M 17 6.5 C 17 9.538 14.538 12 11.5 12 C 11.149 12 10.807 11.967 10.474 11.904 L 9.724 12.748 C 9.581 12.908 9.377 13 9.163 13 L 8 13 L 8 14.25 C 8 14.664 7.664 15 7.25 15 L 6 15 L 6 16.25 C 6 16.664 5.664 17 5.25 17 L 1.75 17 C 1.336 17 1 16.664 1 16.25 L 1 13.811 C 1 13.612 1.079 13.421 1.22 13.28 L 6.276 8.224 C 6.097 7.682 6 7.102 6 6.5 C 6 3.462 8.462 1 11.5 1 C 14.547 1 17 3.453 17 6.5 Z  M 11.5 5 C 11.5 5.828 12.172 6.5 13 6.5 C 13.828 6.5 14.5 5.828 14.5 5 C 14.5 4.172 13.828 3.5 13 3.5 C 12.172 3.5 11.5 4.172 11.5 5 Z " fill="rgb(255,103,179)"/></g></svg>