<?xml version="1.0" encoding="UTF-8" standalone="no"?><!-- Generator: Gravit.io --><svg xmlns="http://www.w3.org/2000/svg" xmlns:xlink="http://www.w3.org/1999/xlink" style="isolation:isolate" viewBox="0 0 18 18" width="18pt" height="18pt"><defs><clipPath id="_clipPath_DQWDvgrSBR6I2xvaLfCud8rH8yneJW2G"><rect width="18" height="18"/></clipPath></defs><g clip-path="url(#_clipPath_DQWDvgrSBR6I2xvaLfCud8rH8yneJW2G)"><rect width="18" height="18" style="fill:rgb(0,0,0)" fill-opacity="0"/><path d=" M 16.062 2.779 C 14.54 2.866 11.514 3.18 9.646 4.323 C 9.517 4.402 9.444 4.543 9.444 4.689 L 9.444 14.797 C 9.444 15.118 9.795 15.32 10.091 15.172 C 12.013 14.204 14.792 13.94 16.166 13.868 C 16.635 13.844 17 13.467 17 13.017 L 17 3.632 C 17 3.14 16.574 2.75 16.062 2.779 Z  M 8.354 4.323 C 6.486 3.18 3.461 2.866 1.938 2.779 C 1.427 2.75 1 3.14 1 3.632 L 1 13.017 C 1 13.468 1.365 13.844 1.834 13.869 C 3.209 13.941 5.989 14.205 7.911 15.173 C 8.206 15.321 8.556 15.119 8.556 14.799 L 8.556 4.684 C 8.556 4.537 8.483 4.403 8.354 4.323 Z " fill="rgb(255,103,179)"/></g></svg>