<?xml version="1.0" encoding="UTF-8" standalone="no"?><!-- Generator: Gravit.io --><svg xmlns="http://www.w3.org/2000/svg" xmlns:xlink="http://www.w3.org/1999/xlink" style="isolation:isolate" viewBox="0 0 18 18" width="18pt" height="18pt"><defs><clipPath id="_clipPath_ULQQczr9I9Gz69yF5UVzn5wybV0Jz8DA"><rect width="18" height="18"/></clipPath></defs><g clip-path="url(#_clipPath_ULQQczr9I9Gz69yF5UVzn5wybV0Jz8DA)"><rect width="18" height="18" style="fill:rgb(0,0,0)" fill-opacity="0"/><path d=" M 7.973 15.387 L 6.448 14.944 C 6.288 14.899 6.198 14.732 6.243 14.572 L 9.655 2.818 C 9.7 2.658 9.867 2.568 10.027 2.613 L 11.552 3.055 C 11.712 3.1 11.802 3.267 11.757 3.427 L 8.345 15.182 C 8.298 15.342 8.133 15.434 7.973 15.387 L 7.973 15.387 Z  M 5.123 12.582 L 6.21 11.422 C 6.325 11.299 6.318 11.104 6.19 10.992 L 3.925 9 L 6.19 7.007 C 6.318 6.895 6.328 6.7 6.21 6.577 L 5.123 5.417 C 5.01 5.297 4.82 5.29 4.698 5.405 L 1.096 8.78 C 0.968 8.897 0.968 9.1 1.096 9.217 L 4.698 12.594 C 4.82 12.709 5.01 12.704 5.123 12.582 L 5.123 12.582 Z  M 13.302 12.597 L 16.904 9.22 C 17.032 9.102 17.032 8.9 16.904 8.782 L 13.302 5.402 C 13.182 5.29 12.992 5.295 12.877 5.415 L 11.79 6.575 C 11.675 6.697 11.682 6.892 11.81 7.005 L 14.075 9 L 11.81 10.992 C 11.682 11.104 11.672 11.299 11.79 11.422 L 12.877 12.582 C 12.99 12.704 13.18 12.709 13.302 12.597 L 13.302 12.597 Z " fill="rgb(255,103,179)"/></g></svg>