<?xml version="1.0" encoding="UTF-8" standalone="no"?><!-- Generator: Gravit.io --><svg xmlns="http://www.w3.org/2000/svg" xmlns:xlink="http://www.w3.org/1999/xlink" style="isolation:isolate" viewBox="0 0 2163.4 362.001" width="2163.4pt" height="362.001pt"><defs><clipPath id="_clipPath_HcPB8LL2NEvS3rRZ7r0NiXOeWpylhmHm"><rect width="2163.4" height="362.001"/></clipPath></defs><g clip-path="url(#_clipPath_HcPB8LL2NEvS3rRZ7r0NiXOeWpylhmHm)"><rect width="2163.4" height="362.001" style="fill:rgb(0,0,0)" fill-opacity="0"/><g><path d=" M 1290.7 287.95 C 1336.3 287.95 1368.7 263.95 1368.7 223.45 C 1368.7 179.05 1333 167.95 1301.2 158.35 C 1268.5 148.45 1263.4 141.85 1263.4 132.25 C 1263.4 123.85 1270.9 116.35 1285.9 116.35 C 1305.1 116.35 1315 125.65 1322.2 140.65 L 1362.7 116.95 C 1347.4 86.05 1320.4 69.55 1285.9 69.55 C 1249.6 69.55 1215.4 92.95 1215.4 133.45 C 1215.4 173.65 1246 188.65 1277.2 197.35 C 1308.7 206.05 1320.7 211.15 1320.7 224.05 C 1320.7 232.15 1315 241.15 1292.2 241.15 C 1268.5 241.15 1255.6 229.45 1248.1 212.05 L 1206.7 236.05 C 1218.4 266.95 1246.6 287.95 1290.7 287.95 Z  M 1435.9 226.75 L 1542.4 226.75 C 1543.6 221.05 1544.2 215.05 1544.2 208.75 C 1544.2 163.45 1511.8 129.55 1468 129.55 C 1420.6 129.55 1388.2 164.05 1388.2 208.75 C 1388.2 253.45 1420 287.95 1471.3 287.95 C 1499.8 287.95 1522 277.45 1536.7 257.05 L 1500.7 236.35 C 1494.7 242.95 1484.2 247.75 1471.9 247.75 C 1455.4 247.75 1441.6 242.35 1435.9 226.75 Z  M 1435 193.15 C 1439.2 177.85 1450.6 169.45 1467.7 169.45 C 1481.2 169.45 1494.7 175.75 1499.5 193.15 L 1435 193.15 Z  M 1677.1 133.75 L 1677.1 147.85 C 1667.2 136.45 1652.5 129.55 1632.4 129.55 C 1593.1 129.55 1560.7 164.05 1560.7 208.75 C 1560.7 253.45 1593.1 287.95 1632.4 287.95 C 1652.5 287.95 1667.2 281.05 1677.1 269.65 L 1677.1 283.75 L 1722.1 283.75 L 1722.1 133.75 L 1677.1 133.75 Z  M 1641.4 245.35 C 1620.7 245.35 1605.7 231.25 1605.7 208.75 C 1605.7 186.25 1620.7 172.15 1641.4 172.15 C 1662.1 172.15 1677.1 186.25 1677.1 208.75 C 1677.1 231.25 1662.1 245.35 1641.4 245.35 Z  M 1800.1 160.45 L 1800.1 133.75 L 1755.1 133.75 L 1755.1 283.75 L 1800.1 283.75 L 1800.1 215.95 C 1800.1 186.25 1826.5 178.75 1845.1 181.75 L 1845.1 130.75 C 1826.2 130.75 1806.1 140.35 1800.1 160.45 Z  M 1933.6 287.95 C 1963 287.95 1988.5 272.65 2001.4 249.25 L 1962.1 226.75 C 1957.3 237.25 1946.2 243.55 1933 243.55 C 1913.5 243.55 1899.1 229.45 1899.1 208.75 C 1899.1 188.05 1913.5 173.95 1933 173.95 C 1946.2 173.95 1957 180.25 1962.1 190.75 L 2001.4 167.95 C 1988.5 144.85 1962.7 129.55 1933.6 129.55 C 1888 129.55 1854.1 164.05 1854.1 208.75 C 1854.1 253.45 1888 287.95 1933.6 287.95 Z  M 2107.3 129.55 C 2087.5 129.55 2072.5 136.75 2064.4 147.85 L 2064.4 73.75 L 2019.4 73.75 L 2019.4 283.75 L 2064.4 283.75 L 2064.4 201.85 C 2064.4 180.55 2075.8 170.95 2092.3 170.95 C 2106.7 170.95 2118.4 179.65 2118.4 198.25 L 2118.4 283.75 L 2163.4 283.75 L 2163.4 191.65 C 2163.4 151.15 2137.6 129.55 2107.3 129.55 Z  M 559 73.75 L 559 154.15 L 493 154.15 L 493 73.75 L 445 73.75 L 445 283.75 L 493 283.75 L 493 200.35 L 559 200.35 L 559 283.75 L 607 283.75 L 607 73.75 L 559 73.75 Z  M 750.4 133.75 L 750.4 147.85 C 740.5 136.45 725.8 129.55 705.7 129.55 C 666.4 129.55 634 164.05 634 208.75 C 634 253.45 666.4 287.95 705.7 287.95 C 725.8 287.95 740.5 281.05 750.4 269.65 L 750.4 283.75 L 795.4 283.75 L 795.4 133.75 L 750.4 133.75 Z  M 714.7 245.35 C 694 245.35 679 231.25 679 208.75 C 679 186.25 694 172.15 714.7 172.15 C 735.4 172.15 750.4 186.25 750.4 208.75 C 750.4 231.25 735.4 245.35 714.7 245.35 Z  M 869.5 177.55 C 869.5 172.15 874.3 169.15 882.1 169.15 C 892 169.15 898 174.55 902.2 182.35 L 940.6 161.65 C 928 140.35 906.4 129.55 882.1 129.55 C 850.9 129.55 823.3 146.05 823.3 178.75 C 823.3 230.65 897.1 221.95 897.1 238.45 C 897.1 244.45 891.7 247.75 880.9 247.75 C 867.7 247.75 859.3 241.45 855.4 230.05 L 816.4 252.25 C 828.1 276.55 850.9 287.95 880.9 287.95 C 913.3 287.95 943.3 273.25 943.3 238.75 C 943.3 183.25 869.5 194.65 869.5 177.55 Z  M 1053.7 129.55 C 1033.9 129.55 1018.9 136.75 1010.8 147.85 L 1010.8 73.75 L 965.8 73.75 L 965.8 283.75 L 1010.8 283.75 L 1010.8 201.85 C 1010.8 180.55 1022.2 170.95 1038.7 170.95 C 1053.1 170.95 1064.8 179.65 1064.8 198.25 L 1064.8 283.75 L 1109.8 283.75 L 1109.8 191.65 C 1109.8 151.15 1084 129.55 1053.7 129.55 Z " fill="rgb(114,137,218)"/><g><path d=" M 122.749 223.777 L 145.923 246.95 L 115.025 277.848 L 91.852 254.675 L 122.749 223.777 Z " fill="rgb(164,189,224)"/><path d=" M 115.023 216.054 L 130.472 231.502 L 99.575 262.4 L 84.126 246.951 L 115.023 216.054 Z " fill="rgb(176,208,255)"/><path d=" M 58.827 349.105 C 58.832 349.11 107.284 285.618 107.284 285.618 L 91.833 254.716 L 9.6 352.4 C 22.4 365.201 43.153 365.201 55.953 352.4 C 57 351.354 57.952 350.25 58.827 349.105 L 58.827 349.105 Z " fill="rgb(98,117,189)"/><path d=" M 40.502 336.949 C 41.549 335.903 42.501 334.799 43.376 333.654 C 43.381 333.659 91.833 270.167 91.833 270.167 L 91.833 254.716 L 76.382 254.716 L 12.891 303.169 C 11.751 304.049 10.647 305.001 9.6 306.048 C -3.2 318.848 -3.2 339.601 9.6 352.401 C 13.866 356.667 27.702 349.749 40.502 336.949 Z " fill="rgb(114,137,218)"/><path d=" M 99.786 131.107 C 99.786 58.747 158.533 0 230.893 0 C 303.253 0 362 58.747 362 131.107 C 362 203.467 303.253 262.214 230.893 262.214 C 158.533 262.214 99.786 203.467 99.786 131.107 Z " fill="rgb(164,189,224)"/><path d=" M 153.638 239.264 L 138.187 223.813 L 122.736 239.264 L 138.187 254.715 C 142.454 258.982 149.371 258.982 153.638 254.715 C 157.905 250.449 157.905 243.531 153.638 239.264 Z " fill="rgb(176,208,255)"/><path d=" M 138.187 239.264 C 142.454 234.997 142.454 228.08 138.187 223.813 L 122.736 208.362 C 118.469 204.095 111.552 204.095 107.285 208.362 C 103.018 212.629 103.018 219.546 107.285 223.813 L 122.736 239.264 C 127.003 243.531 133.92 243.531 138.187 239.264 Z " fill="rgb(196,227,250)"/><path d=" M 122.736 270.167 L 107.285 254.716 L 91.834 270.167 L 107.285 285.618 C 111.552 289.884 118.469 289.884 122.736 285.618 C 127.003 281.351 127.003 274.433 122.736 270.167 Z " fill="rgb(176,208,255)"/><path d=" M 107.284 270.167 C 111.551 265.9 111.551 258.982 107.284 254.716 L 91.833 239.265 C 87.567 234.998 80.649 234.998 76.382 239.265 C 72.116 243.532 72.116 250.449 76.382 254.716 L 91.833 270.167 C 96.1 274.433 103.018 274.433 107.284 270.167 Z " fill="rgb(196,227,250)"/><path d=" M 308.149 53.851 L 153.638 208.362 C 196.305 251.029 265.482 251.029 308.149 208.362 C 350.816 165.695 350.816 96.519 308.149 53.851 L 308.149 53.851 Z " fill="rgb(227,245,255)"/><path d=" M 292.698 192.911 C 335.365 150.244 342.282 87.985 308.149 53.851 C 265.481 11.184 196.305 11.184 153.638 53.851 C 110.971 96.519 110.971 165.695 153.638 208.362 C 187.771 242.496 250.03 235.578 292.698 192.911 L 292.698 192.911 Z " fill="rgb(255,255,255)"/><path d=" M 289.353 119.842 L 293.171 96.51 L 270.899 96.51 L 276.202 64.693 L 252.022 64.693 L 246.719 96.51 L 227.205 96.51 L 232.507 64.693 L 208.327 64.693 L 203.024 96.51 L 180.329 96.51 L 176.511 119.842 L 199.206 119.842 L 196.237 136.811 L 173.753 136.811 L 169.935 160.143 L 192.419 160.143 L 187.116 191.959 L 211.297 191.959 L 216.599 160.143 L 236.113 160.143 L 230.811 191.959 L 254.991 191.959 L 260.294 160.143 L 282.99 160.143 L 286.595 136.811 L 264.112 136.811 L 267.081 119.842 L 289.353 119.842 Z  M 239.931 136.811 L 220.417 136.811 L 223.387 119.842 L 242.901 119.842 L 239.931 136.811 Z " fill="rgb(114,137,218)"/></g></g></g></svg>